<?xml version="1.0" encoding="UTF-8"?>
<svg width="17px" height="27px" viewBox="0 0 17 27" version="1.1" xmlns="http://www.w3.org/2000/svg" xmlns:xlink="http://www.w3.org/1999/xlink">
    <title>􀆊@2x</title>
    <g id="Logo-skisser" stroke="none" stroke-width="1" fill="none" fill-rule="evenodd">
        <g id="Artboard" transform="translate(-29964, -3928)" fill="#000000" fill-rule="nonzero">
            <g id="􀆊" transform="translate(29964, 3928)">
                <path d="M17,13.493052 C17,14.0396294 16.8953202,14.5445188 16.6859606,15.00772 C16.476601,15.4709213 16.134647,15.9294905 15.6600985,16.3834277 L5.72249589,26.0550695 C5.09906951,26.6850232 4.32676519,27 3.40558292,27 C2.79146141,27 2.22619048,26.8471436 1.70977011,26.5414308 C1.19334975,26.235718 0.779282978,25.8281009 0.467569787,25.3185795 C0.155856596,24.8090582 0,24.2532167 0,23.6510551 C0,22.7153886 0.381499726,21.8769943 1.14449918,21.1358724 L9.18390805,13.4791559 L1.14449918,5.8502316 C0.381499726,5.12763767 0,4.29387545 0,3.34894493 C0,2.74678332 0.155856596,2.19094184 0.467569787,1.68142048 C0.779282978,1.17189913 1.19334975,0.764282038 1.70977011,0.458569223 C2.22619048,0.152856408 2.79146141,0 3.40558292,0 C4.32676519,0 5.09906951,0.31497684 5.72249589,0.94493052 L15.6600985,10.5887802 C16.1253421,11.0519815 16.4626437,11.5128667 16.6720033,11.9714359 C16.8813629,12.4300051 16.9906951,12.9372105 17,13.493052 Z" id="Path"></path>
            </g>
        </g>
    </g>
</svg>