<?xml version="1.0" encoding="UTF-8"?>
<svg width="669px" height="411px" viewBox="0 0 669 411" version="1.1" xmlns="http://www.w3.org/2000/svg" xmlns:xlink="http://www.w3.org/1999/xlink">
    <title>logos</title>
    <defs>
        <polygon id="path-1" points="0 0 52.9009697 0 52.9009697 52.1764478 0 52.1764478"></polygon>
        <polygon id="path-3" points="0 0 37.1215917 0 37.1215917 36.9404 0 36.9404"></polygon>
        <polygon id="path-5" points="0 0 13.5493042 0 13.5493042 13.2199232 0 13.2199232"></polygon>
        <polygon id="path-7" points="0 0 24.4943538 0 24.4943538 18.3287078 0 18.3287078"></polygon>
        <polygon id="path-9" points="0 18.3287825 116.077569 18.3287825 116.077569 0 0 0"></polygon>
    </defs>
    <g id="logos" stroke="none" stroke-width="1" fill="none" fill-rule="evenodd">
        <g id="Group-8" transform="translate(50.1632, 347.4095)">
            <g id="g11533" transform="translate(517.6968, 0)" fill="#000000" fill-rule="nonzero">
                <path d="M16.1652197,44.6702222 L16.1652197,49.674052 C16.1652197,51.0953713 15.4599502,51.8537768 14.1784054,51.8537768 C12.8896555,51.8537768 12.1801575,51.0734974 12.1801575,49.6133961 L12.1801575,44.6757055 L10.4071419,44.6757055 L10.4071419,49.674052 C10.4071419,52.1334235 11.7732281,53.5427713 14.1550372,53.5427713 C16.5593898,53.5427713 17.9382353,52.106421 17.9382353,49.6019566 L17.9382353,44.6702222 L16.1652197,44.6702222 Z M22.6884868,44.6701927 L18.8376657,53.406532 L20.6474842,53.406532 L21.3907996,51.7145668 L21.4440065,51.587757 L25.4444869,51.587757 L26.2290672,53.406532 L28.0881021,53.406532 L24.2730774,44.7219216 L24.2387885,44.6701927 L22.6884868,44.6701927 Z M33.2306246,44.6702222 L31.2463021,50.6813772 L29.3146841,44.6747005 L27.4278043,44.6747005 L30.473649,53.4120005 L31.9418791,53.4120005 L33.9301921,47.6723191 L35.9169975,53.4120005 L37.3976721,53.4120005 L40.4360531,44.6747005 L38.5974142,44.6747005 L36.6618057,50.6813772 L34.6769807,44.6702222 L33.2306246,44.6702222 Z M50.5814299,44.6702222 L50.5814299,53.3990831 L52.3310803,53.3990831 L52.3310803,44.6702222 L50.5814299,44.6702222 Z M0.397003851,44.6707395 L0.397003851,53.4115276 L2.17051899,53.4115276 L2.17051899,49.8615177 L6.1749721,49.8615177 L6.1749721,53.4115276 L7.94898236,53.4115276 L7.94898236,44.6707395 L6.1749721,44.6707395 L6.1749721,48.1968802 L2.17051899,48.1968802 L2.17051899,44.6707395 L0.397003851,44.6707395 Z M41.8660038,44.6766514 L41.8660038,53.4055122 L48.4668392,53.4055122 L48.4668392,51.8139751 L43.6156542,51.8139751 L43.6156542,49.6496507 L46.8414861,49.6496507 L46.8414861,48.0576258 L43.6156542,48.0576258 L43.6156542,46.2682033 L48.297789,46.2682033 L48.297789,44.6766514 L41.8660038,44.6766514 Z M23.4397537,46.8822407 L24.7041422,49.8087542 L24.6997082,49.8087542 L24.7857261,50.0106301 L22.1033289,50.0106301 L22.1883122,49.8087542 L22.1868342,49.8087542 L23.4397537,46.8822407 Z" id="path4250"></path>
                <path d="M22.4817705,0.000118237595 C21.7783174,0.0623407716 19.8773436,0.495031248 19.8773436,0.495031248 L19.8765618,0.495031248 C15.5918324,1.60251845 14.5791052,5.49080608 14.5791052,5.49080608 C14.3698675,6.1446452 14.2748208,6.8147272 14.2468679,7.44602728 L14.2468679,8.30525987 C14.3037254,9.63278724 14.5989632,10.6240469 14.5989632,10.6240469 C16.0302071,16.9704202 23.0673851,27.3984144 24.5798065,29.5890171 C24.6871071,29.6954309 24.7730392,29.6570037 24.7730392,29.6570037 C24.936281,29.6119256 24.923501,29.4553643 24.923501,29.4553643 L24.9266047,29.4561476 C27.2561055,6.17198764 22.4818001,0.000118237595 22.4818001,0.000118237595 L22.4817705,0.000118237595 Z M30.1789669,0 C30.1789669,0 25.3837778,6.17523917 27.7150714,29.4729373 L27.7181751,29.4729373 C27.7362063,29.6208378 27.8411422,29.6516534 27.8411422,29.6516534 C27.9971567,29.7121024 28.0771459,29.5622363 28.0771459,29.5622363 L28.0779278,29.5637142 C29.6291341,27.3171852 36.6262102,16.945945 38.0511343,10.6239287 C38.0511343,10.6239287 38.8237091,7.56405796 38.0778856,5.49068784 C38.0778856,5.49068784 37.0186423,1.54218772 32.7284946,0.498740952 C32.7284946,0.498740952 31.4921595,0.184879258 30.1790571,0 L30.1789669,0 Z M8.06117801,6.98992576 C8.06117801,6.98992576 3.97862454,10.8649412 3.77571109,14.9729143 L3.77733686,14.9729143 L3.77733686,15.5953761 C3.7804406,15.6422278 3.78280535,15.6896706 3.78576129,15.737409 C3.96162197,19.0499387 6.45357978,21.0104214 6.45357978,21.0104214 C10.468658,24.9235833 20.1906659,29.8641412 22.4498138,30.9851518 C22.4814572,30.9969756 22.5981769,31.0351072 22.6667237,30.9484982 C22.6667237,30.9484982 22.7023871,30.9214513 22.7186595,30.8728261 L22.7186595,30.7696638 C22.7170338,30.7637519 22.71393,30.75784 22.7109741,30.751337 L22.7117559,30.751337 C16.5250167,17.2360705 8.06126817,6.98992576 8.06126817,6.98992576 L8.06117801,6.98992576 Z M44.589629,6.98991098 C44.589629,6.98991098 36.1514124,17.2040281 29.9674029,30.691893 L29.9697677,30.6911097 C29.9697677,30.6911097 29.8967412,30.8474937 30.014831,30.9484982 C30.014831,30.9484982 30.0500658,30.9751016 30.0988388,30.9858908 L30.1843837,30.9858908 C30.1997546,30.9814569 30.2162487,30.975545 30.2325064,30.9644602 L30.2325064,30.9659382 C32.5529901,29.8142597 42.1997634,24.9061728 46.1958955,21.011057 C46.1958955,21.011057 48.7265629,18.9788335 48.8591353,15.7159046 C49.1513447,11.1840497 44.5897043,6.98991098 44.5897043,6.98991098 L44.589629,6.98991098 Z M52.1844819,20.4078383 C52.1844819,20.4078383 38.4276176,27.7904459 31.3146819,32.5883206 L31.3154637,32.5891039 L31.3170895,32.5905819 C31.3170895,32.5905819 31.1880036,32.6751217 31.2330669,32.8265989 C31.2330669,32.8265989 31.3005658,32.948827 31.3988035,32.948827 L31.3988035,32.9496103 C33.9465562,32.9540072 43.587323,32.9648334 43.8290331,32.9197553 C43.8290331,32.9197553 45.0756298,32.8699477 46.6159996,32.2781834 C46.6159996,32.2781834 50.0452091,31.1879588 51.826386,27.2946461 C51.826386,27.2946461 52.6402775,25.6666918 52.6520126,23.3795925 L52.6520126,23.2826376 C52.6461007,22.4006295 52.5218477,21.4242235 52.1845913,20.4078383 L52.1844819,20.4078383 Z M0.462508956,20.442275 C-0.789158651,24.3171279 0.895898512,27.4393985 0.898619455,27.4444384 C2.65465908,31.1548228 6.00666088,32.2790554 6.00666088,32.2790554 C7.55424615,32.9148632 9.10218613,32.9588033 9.10218613,32.9588033 C9.3438889,33.0029946 18.72782,32.9632372 21.2421853,32.9514134 C21.3485991,32.9506301 21.4071593,32.8436694 21.4071593,32.8436694 C21.4145491,32.8318457 21.4210522,32.8200219 21.4239786,32.8092327 L21.4239786,32.7122779 C21.4031392,32.647395 21.3475971,32.601578 21.3475971,32.601578 L21.3492228,32.6007946 C14.2398431,27.8045014 0.462619804,20.4424672 0.462619804,20.4424672 L0.462508956,20.442275 Z M20.9550113,34.1426276 L4.77165443,34.710109 C6.52666982,37.8386609 9.48232591,40.2700841 12.5612639,39.5233397 C14.6860408,38.9921426 19.4996011,35.6346235 21.0886671,34.5000747 L21.0833464,34.4956408 C21.2069047,34.3846452 21.1627725,34.2955384 21.1627725,34.2955384 C21.1221283,34.150254 20.9550305,34.1504018 20.9550305,34.1504018 L20.9550113,34.1426276 Z M31.6736468,34.1544514 L31.672021,34.1603633 C31.672021,34.1603633 31.5299438,34.1783945 31.4902426,34.2848084 C31.4902426,34.2848084 31.4557172,34.4302406 31.5513418,34.502469 L31.5497161,34.503947 C33.0991163,35.6150256 37.7960308,38.8987644 40.058788,39.5363754 C40.058788,39.5363754 40.4015795,39.6529873 40.9760693,39.6738266 L41.3212876,39.6738266 C42.8373153,39.6206197 45.4783323,38.841833 47.8781874,34.7185334 L31.6736468,34.1544514 Z" id="path4252"></path>
            </g>
            <g id="Group-3" transform="translate(301.3687, 0.756)">
                <mask id="mask-2" fill="white">
                    <use xlink:href="#path-1"></use>
                </mask>
                <g id="Clip-2"></g>
                <path d="M18.7859136,6.64931448 C18.7596286,6.65140154 18.7333435,6.6534886 18.7070585,6.65557566 C15.3594933,17.4590942 12.0122302,28.2623146 8.65409054,39.0998225 L10.5121705,39.0998225 C10.5469151,38.9743007 10.5822639,38.8538475 10.6136851,38.7322017 C11.2475472,36.266489 11.9850388,33.8347656 13.0865932,31.5252843 C13.7126,30.2128215 14.4401213,28.9680392 15.5966628,28.0264768 C16.8601572,26.9981524 18.291332,26.5369121 19.9152637,26.9066199 C21.0497499,27.1651172 21.8748582,27.9176515 22.6452816,28.7351829 C24.013614,30.1862861 24.8725606,31.9412056 25.7179114,33.705666 C25.9641448,34.2196792 26.2016165,34.7375683 26.4587264,35.2867633 C26.9215847,34.3180692 27.3539282,33.3961848 27.8007738,32.4817542 C28.6213502,30.8019689 29.6156496,29.2405496 31.0374584,27.9838412 C31.8015372,27.3085281 32.6704539,26.8493748 33.7248765,26.7948131 C35.5089354,26.7026843 36.9144294,27.4426962 38.0667411,28.7208716 C39.2090826,29.9880153 39.9378125,31.5014322 40.5024876,33.0723923 C41.175324,34.9450817 41.7176417,36.8636864 42.3270315,38.7587372 C42.3702356,38.8932035 42.4944097,39.0983317 42.5913924,39.1042947 C43.1303867,39.138284 43.6727043,39.1203949 44.2796771,39.1203949 C40.9160992,28.2652961 37.5703467,17.4674425 34.2245943,6.66929063 C34.195288,6.66809802 34.1659817,6.66720357 34.1366754,6.66601096 C31.5985079,15.1227793 29.0603405,23.5798458 26.522173,32.0369123 C26.4828966,32.0360178 26.4436201,32.0354215 26.4040415,32.034527 C23.8649676,23.5726901 21.3252895,15.1111514 18.7859136,6.64931448 L18.7859136,6.64931448 Z M27.9723818,-5.96302943e-05 C28.8367666,0.106380445 29.704777,0.188968402 30.5646299,0.322838413 C36.5422092,1.25426361 41.6182419,3.90035792 45.7570773,8.24561746 C49.7569343,12.4447828 52.1059704,17.4328569 52.7377176,23.1675023 C53.8885186,33.6087668 48.893758,43.372333 39.6952047,48.6797274 C36.1814697,50.7071574 32.3716505,51.8350644 28.3062319,52.1066804 C28.1651387,52.1162212 28.0261604,52.1525957 27.8865778,52.1764478 L24.9635008,52.1764478 C24.8535266,52.1528939 24.7447609,52.1147305 24.6338804,52.107873 C21.7660926,51.9262987 19.0082789,51.2784156 16.3537927,50.2008962 C5.32586144,45.7253444 -1.32999249,34.4125832 0.223845764,22.7468106 C0.954388425,17.2623142 3.20825453,12.4549199 7.02320994,8.39678025 C11.1774538,3.9778773 16.2861162,1.27811573 22.3274442,0.328801442 C23.2017992,0.191353614 24.0846138,0.108169354 24.9635008,-5.96302943e-05 L27.9723818,-5.96302943e-05 Z" id="Fill-1" fill="#000000" mask="url(#mask-2)"></path>
            </g>
            <path d="M242.332688,31.5122813 C242.583333,30.0762945 242.709526,28.6194205 242.707785,27.1608059 C242.738245,19.8337916 239.519024,12.8705607 233.916934,8.14746928 C228.315715,3.42524817 220.907764,1.42879125 213.691277,2.69681118 C211.473765,1.4200883 208.957742,0.750831379 206.398204,0.756022826 C201.145103,0.788254067 196.302781,3.60365866 193.67623,8.15356135 C191.04881,12.703464 191.032274,18.3046832 193.631845,22.8702512 C192.181063,30.8395432 194.721455,39.0133547 200.433201,44.7564319 C206.144948,50.4986389 214.304835,53.0834152 222.281089,51.6770184 C224.49686,52.9537413 227.009402,53.6221279 229.565459,53.6177975 C234.815949,53.5838349 239.656531,50.7701709 242.282211,46.2220088 C244.907891,41.6755873 244.927038,36.0769791 242.332688,31.5122813 M218.086267,43.0967792 C209.30499,43.0967792 205.292927,38.6225922 205.292927,35.3415797 C205.292059,34.5591844 205.613198,33.8107307 206.1815,33.2711477 C206.749803,32.7333053 207.513922,32.4530703 208.295447,32.4957148 C212.055122,32.4957148 211.071689,38.1352269 218.086267,38.1352269 C221.672753,38.1352269 223.778867,35.9768951 223.778867,33.9491076 C223.778867,32.7306945 223.081761,31.3382223 220.714558,30.7812335 L212.881902,28.8065339 C206.589669,27.2043207 205.493097,23.7057345 205.493097,20.4595338 C205.493097,13.7234499 211.654786,11.2866236 217.520575,11.2866236 C222.925108,11.2866236 229.347885,14.2717358 229.347885,18.309905 C229.347885,20.0504951 227.894492,20.9817109 226.20699,20.9817109 C222.994731,20.9817109 223.534314,16.4735823 217.076725,16.4735823 C213.866206,16.4735823 212.176963,17.9791928 212.176963,20.0853069 C212.176963,22.191421 214.67471,22.905063 216.867854,23.3837253 L222.646613,24.6891679 C228.982361,26.1164518 230.671604,29.8326118 230.671604,33.3921187 C230.671604,38.8662748 226.432397,43.0967792 218.077564,43.0967792" id="Fill-1" fill="#000000"></path>
            <g id="Group-2" transform="translate(416.0876, 2.1612)" fill="#000000">
                <path d="M4.95030206,51.0846508 C2.819546,51.0832101 0.923439275,49.7042536 0.25412442,47.6680125 C-0.41768091,45.6241515 0.266031998,43.3880429 2.02664138,42.2190882 C2.75635022,41.7346209 3.58700109,41.3502016 4.42481207,41.0744408 C13.2542424,38.1683986 22.093946,35.2923023 30.9321708,32.4117104 C32.1218391,32.0240146 33.3308863,31.7622742 34.5976036,31.9809626 C37.069788,32.4076719 38.9486171,34.9715846 38.6085118,37.4101516 C38.3540943,39.2339525 37.4063912,40.5757244 35.7035296,41.3137027 C34.4282514,41.8662911 33.0923456,42.2917812 31.7668687,42.7258816 C23.7557147,45.3491527 15.7398132,47.9587843 7.72531258,50.5725306 C6.82415017,50.8665028 5.90890102,51.0891536 4.95030206,51.0846508" id="Fill-4"></path>
                <path d="M38.6350904,21.1648518 C38.5656678,22.6597818 37.900867,24.094363 36.3469669,25.0089684 C35.6643436,25.4106847 34.9207037,25.7432893 34.1651561,25.991314 C25.4072491,28.8657339 16.6421041,31.719047 7.87789302,34.5749508 C6.71694305,34.953198 5.54315158,35.2614955 4.29729202,35.095917 C2.15135964,34.8107077 0.351447469,33.0459603 0.0706465391,30.9468557 C-0.231089937,28.6913166 0.696378102,26.8300262 2.77973733,25.8133153 C3.86278216,25.2846531 5.03322706,24.9155496 6.18592733,24.537912 C14.4177218,21.8408049 22.6551976,19.1601567 30.8908834,16.474327 C32.069578,16.0899077 33.2701421,15.8082034 34.5177917,16.0198817 C36.8869328,16.4220551 38.6362572,18.5264173 38.6350904,21.1648518" id="Fill-6"></path>
                <path d="M4.97652986,19.1809062 C2.80514795,19.1865212 0.892464006,17.7898106 0.237780685,15.7204995 C-0.420794002,13.6389205 0.313506656,11.4015165 2.13256434,10.2449821 C2.86235102,9.78108822 3.68451871,9.41747101 4.51174517,9.14552009 C13.2681735,6.26576629 22.0337855,3.41245322 30.7979965,0.55548265 C31.9217451,0.18919851 33.0609812,-0.107592987 34.265281,0.0376405413 C36.4398538,0.300066707 38.2522962,2.04157368 38.5625937,4.1610231 C38.8915697,6.40840908 37.9480692,8.34422114 35.8581725,9.32885265 C34.5579117,9.94140897 33.1637911,10.374214 31.7901391,10.824316 C23.7932274,13.444844 15.789934,16.0466272 7.78874184,18.6547349 C6.87528271,18.9524408 5.94968253,19.1882738 4.97652986,19.1809062" id="Fill-8"></path>
            </g>
            <g id="Fill-19" transform="translate(84.753, 3.1612)" fill="#000105">
                <path d="M51.1476622,11.5006787 C51.1819238,12.0010264 51.1819238,12.5036841 51.1819238,13.0084208 C51.1819238,28.4240274 39.4209455,46.2 17.9190325,46.2 L17.9190325,46.190991 C11.5667523,46.199307 5.34619387,44.3834098 0,40.9597471 C0.923441904,41.0701655 1.85267124,41.1265297 2.78282656,41.1281467 C8.04799644,41.1334597 13.1617672,39.3711547 17.3013982,36.1249006 C12.2999035,36.0311143 7.91095016,32.7756202 6.37936539,28.023472 C8.1311039,28.3602712 9.93701272,28.2918949 11.6581936,27.8234253 C6.2034276,26.7238616 2.28070936,21.9409903 2.27908888,16.3881933 C2.27908888,16.3382972 2.27908888,16.28817 2.27908888,16.2403528 C3.90489297,17.1447209 5.72469161,17.6455306 7.58500225,17.7005088 C2.44761877,14.2773082 0.862789666,7.4583959 3.9657767,2.12805273 C9.90182516,9.41589658 18.6595917,13.8460297 28.0592997,14.3163473 C27.116875,10.2652865 28.4051563,6.019723 31.4412407,3.17055928 C36.1489656,-1.24733078 43.5543261,-1.02048801 47.981708,3.67714401 C50.5997086,3.16201225 53.1102946,2.20428299 55.4051253,0.845536354 C54.5326127,3.54685956 52.7061007,5.84000438 50.2656583,7.29761935 C52.5831757,7.02457642 54.8465228,6.40572531 56.98,5.4625491 C55.4104497,7.80466608 53.435548,9.84925405 51.1476622,11.5006787" id="Fill-1"></path>
            </g>
            <g id="1-Color-Icon-Black" transform="translate(0, 2)" stroke="#000000" stroke-width="3.13371564">
                <path d="M32,7.99998268 C32,12.4182703 28.4642051,15.9999861 24.1025641,15.9999861 L16,15.9999861 L16,0 L24.1025641,0 C28.4642051,0 32,3.58171584 32,7.99998268 L32,7.99998268 Z" id="Rectangle-55"></path>
                <path d="M0,7.99998268 C0,12.4182703 3.53579487,15.9999861 7.8974359,15.9999861 L16,15.9999861 L16,0 L7.8974359,0 C3.53579487,0 0,3.58171584 0,7.99998268 L0,7.99998268 Z" id="Rectangle-55_2"></path>
                <path d="M0,24.0001974 C0,28.418485 3.53579487,32.0002009 7.8974359,32.0002009 L16,32.0002009 L16,16.0002147 L7.8974359,16.0002147 C3.53579487,16.0002147 0,19.5819098 0,24.0001974 L0,24.0001974 Z" id="Rectangle-55_3"></path>
                <path d="M0,39.9999931 C0,44.4182842 3.58674872,47.9999931 7.94838974,47.9999931 L7.94838974,47.9999931 C12.3666667,47.9999931 16,44.3717387 16,39.8961004 L16,31.9999931 L7.8974359,31.9999931 C3.53579487,31.9999931 0,35.5817089 0,39.9999931 L0,39.9999931 Z" id="Rectangle-55_4"></path>
                <path d="M16,24.0001974 C16,28.418485 19.5357949,32.0002009 23.8974359,32.0002009 L24.1025641,32.0002009 C28.4642051,32.0002009 32,28.418485 32,24.0001974 L32,24.0001974 C32,19.5819098 28.4642051,16.0002147 24.1025641,16.0002147 L23.8974359,16.0002147 C19.5357949,16.0002147 16,19.5819098 16,24.0001974 L16,24.0001974 Z" id="Rectangle-55_5"></path>
            </g>
        </g>
        <path d="M592.502258,51.252088 C591.44429,57.979728 586.261258,60.832576 580.104946,60.832576 L576.58913,60.832576 L579.67329,41.078152 L583.187842,41.078152 C589.954666,41.078152 593.632906,44.049816 592.502258,51.252088 L592.502258,51.252088 Z M551.480402,51.252088 C550.42433,57.979728 545.241298,60.832576 539.084986,60.832576 L535.56917,60.832576 L538.68493,40.990936 L542.200746,40.990936 C548.966306,40.990936 552.611682,44.049816 551.480402,51.252088 L551.480402,51.252088 Z M520.831562,69.72292 L511.67957,51.234392 L526.747082,32.03044 L520.831562,69.72292 Z M607.93001,29 L605.762882,42.726408 C605.762882,42.726408 605.47153,43.048096 605.394426,42.67648 C603.469986,33.183208 594.804002,29.207928 583.407778,29.207928 L567.495282,29.207928 L565.52281,41.780936 C565.276962,41.860568 564.892706,41.833392 564.892706,41.830232 C562.633938,32.946208 554.147442,29.207928 543.095658,29.207928 L512.710994,29.207928 L500.353498,45.86176 L503.014218,29.207928 L489.472354,29.207928 L482.666346,72.547328 L496.209474,72.547328 L498.719146,54.386176 L506.248794,72.547328 L524.38593,72.547328 L524.38277,72.544168 L540.17645,72.544168 C550.185434,72.544168 558.729442,67.396528 562.841866,58.841776 L560.690538,72.544168 L580.48857,72.544168 C590.577186,72.544168 599.176178,67.316264 603.251314,58.642064 L601.093034,72.305272 L614.671554,72.305272 L621.507898,29 L607.93001,29 Z" id="Fill-1" fill="#000000"></path>
        <g id="Group-25" transform="translate(69.4576, 237.9947)">
            <g id="Group-3">
                <mask id="mask-4" fill="white">
                    <use xlink:href="#path-3"></use>
                </mask>
                <g id="Clip-2"></g>
                <path d="M5.52824499,19.3490592 C13.9218037,19.3490592 22.0529207,26.2295168 22.0529207,34.5901184 C21.0023921,34.8037344 19.6772271,34.9617344 18.554546,34.9617344 C9.72146752,34.9501056 2.34642621,27.8906656 2.01259438,19.3490592 L5.52824499,19.3490592 Z M18.554546,1.9849856 C19.7399793,1.9849856 21.0023921,2.1419744 22.0544451,2.3505344 C22.0544451,10.7194784 13.9205334,17.606256 5.52545035,17.606256 L2.0148809,17.6014528 C2.59057567,9.0221792 9.72477027,1.9849856 18.554546,1.9849856 L18.554546,1.9849856 Z M23.792962,2.8220064 C30.3542564,4.9612 35.0954814,11.151008 35.1135719,18.4637536 C35.1315576,25.6571776 30.4853502,31.8323232 23.792962,34.1130848 L23.792962,2.8220064 Z M-5.08115427e-05,36.9404 L37.1215917,36.9404 L37.1215917,0 L-5.08115427e-05,0 L-5.08115427e-05,36.9404 Z" id="Fill-1" fill="#000000" mask="url(#mask-4)"></path>
            </g>
            <path d="M49.5477068,21.716607 L49.5477068,19.388319 L57.2718234,19.388319 L57.2718234,16.4194358 L49.5464365,16.4194358 L49.5464365,12.097567 L57.7641872,12.097567 L57.7641872,9.13677344 L46.3846883,9.13677344 L46.3846883,15.5007606 L46.3846883,21.5821174 C46.3846883,24.7277078 47.7314482,26.8797942 50.8921802,27.3219414 C50.9556946,27.337615 51.0179388,27.348991 51.0753558,27.3500022 L51.133281,27.3500022 C51.4566964,27.3858998 51.7879877,27.4101686 52.1337602,27.4101686 L57.9842012,27.4101686 L57.9842012,24.4524086 L52.1601822,24.4524086 C51.1551299,24.4524086 49.5477068,23.9591958 49.5477068,21.716607" id="Fill-4" fill="#000000"></path>
            <polygon id="Fill-6" fill="#000000" points="60.2307828 17.7715366 60.2307828 27.4148454 63.3938013 27.4148454 63.3938013 17.7083366 63.3938013 9.13209664 60.2307828 9.13209664"></polygon>
            <path d="M68.7037599,19.3621542 C68.8361239,17.7548518 70.4778449,16.464055 72.4635599,16.464055 C74.3169109,16.464055 75.8262678,17.7813958 75.8262678,19.3621542 L68.7037599,19.3621542 Z M72.4635599,13.7762854 C68.4654537,13.7762854 65.4734161,16.5166374 65.4734161,20.7846598 L65.4734161,20.8903302 C65.4734161,25.0531878 68.3597657,27.7407046 72.54308,27.7407046 C74.5554711,27.7407046 76.4352441,27.1873254 78.1564851,25.3694406 L76.2502901,23.5250118 C75.2437135,24.5260998 74.264321,25.0531878 72.648768,25.0531878 C70.2923827,25.0531878 68.7301819,23.6830118 68.6244939,21.5751654 L79.0037676,21.5751654 C79.0566116,21.0483302 79.0566116,20.4689126 79.0566116,20.4689126 C79.0566116,16.753511 76.4352441,13.7762854 72.4635599,13.7762854 L72.4635599,13.7762854 Z" id="Fill-8" fill="#000000"></path>
            <path d="M87.9447698,16.5956627 C89.3748607,16.5956627 90.4340273,17.1224979 91.3341538,18.0447123 L93.2937009,16.0159923 C91.757922,14.3823987 89.9304849,13.7236019 87.9447698,13.7236019 C83.9199876,13.7236019 80.6898978,16.7008275 80.6898978,20.7585203 C80.6898978,24.8162131 83.9199876,27.7934387 87.9447698,27.7934387 C89.9304849,27.7934387 91.757922,27.1346419 93.2937009,25.5013011 L91.3341538,23.4720755 C90.4340273,24.3945427 89.3748607,24.9213779 87.9447698,24.9213779 C85.6148066,24.9213779 83.8407216,23.1558227 83.8407216,20.7585203 C83.8407216,18.3609651 85.6148066,16.5956627 87.9447698,16.5956627" id="Fill-10" fill="#000000"></path>
            <path d="M98.4256667,21.7210563 L98.4218558,21.7208035 L98.4218558,17.0533571 L101.299059,17.0533571 L101.299059,14.1939363 L98.4261748,14.1939363 L98.4261748,9.13237472 L95.2626481,9.13237472 L95.2626481,15.6900067 L95.2626481,21.9066115 L95.2715402,21.9061059 C95.3617307,24.8757475 96.7186529,26.8994115 99.7701401,27.3263907 C99.8336545,27.3420643 99.8956446,27.3536931 99.9533157,27.3547043 L100.011241,27.3547043 C100.33491,27.3903491 100.665693,27.4146179 101.011974,27.4146179 L101.346568,27.4146179 L101.358255,24.4568579 L101.038142,24.4568579 C100.03309,24.4568579 98.4256667,23.9638979 98.4256667,21.7210563" id="Fill-12" fill="#000000"></path>
            <path d="M107.09785,16.1606698 L107.09785,14.1946442 L103.960238,14.1946442 L103.960238,20.6734026 L103.960238,27.4148202 L107.09785,27.4148202 L107.09785,20.4633258 C107.09785,18.2862122 108.49466,16.9221034 110.682097,16.9221034 C111.183098,16.9221034 111.632018,16.9741802 112.000656,17.0535594 L112.000656,14.0106058 C111.868546,13.9848202 111.394728,13.9327434 111.052259,13.9327434 C109.153177,13.9327434 107.729946,14.7980778 107.09785,16.1606698" id="Fill-14" fill="#000000"></path>
            <path d="M119.734757,24.9494387 C117.388788,24.9494387 115.623087,23.1391379 115.623087,20.8047827 C115.623087,18.4694163 117.388788,16.6601267 119.734757,16.6601267 C122.055066,16.6601267 123.846427,18.4694163 123.846427,20.8047827 C123.846427,23.1391379 122.055066,24.9494387 119.734757,24.9494387 M119.734757,13.8014643 C115.701083,13.8014643 112.484712,16.8431539 112.484712,20.8047827 C112.484712,24.7643891 115.701083,27.8083539 119.734757,27.8083539 C123.740739,27.8083539 126.983786,24.7643891 126.983786,20.8047827 C126.983786,16.8431539 123.740739,13.8014643 119.734757,13.8014643" id="Fill-16" fill="#000000"></path>
            <polygon id="Fill-18" fill="#000000" points="128.928953 17.4561434 128.928953 27.4146938 132.09375 27.4146938 132.09375 17.5822906 132.09375 9.13219776 128.928953 9.13219776"></polygon>
            <path d="M143.502034,21.8795366 C143.502034,23.9775238 142.263503,24.8704134 140.601711,24.8704134 C138.940936,24.8704134 137.702659,23.9775238 137.702659,21.906839 L137.702659,14.1946694 L134.512456,14.1946694 L134.512456,18.0240838 L134.512456,22.1689926 C134.512456,25.9463302 137.280415,27.7561254 140.575797,27.7561254 C143.897602,27.7561254 146.690458,25.9202918 146.690458,22.0898662 L146.690458,18.023831 L146.690458,14.1946694 L143.502034,14.1946694 L143.502034,21.8795366 Z" id="Fill-20" fill="#000000"></path>
            <g id="Group-24" transform="translate(148.1493, 14.1949)">
                <mask id="mask-6" fill="white">
                    <use xlink:href="#path-5"></use>
                </mask>
                <g id="Clip-23"></g>
                <polygon id="Fill-22" fill="#000000" mask="url(#mask-6)" points="10.5103675 8.992096 8.51525231 6.2166048 10.9854554 2.868016 13.1012481 0 9.64834971 0 6.77419482 3.9606176 3.87488821 0 0.448157803 0 2.4132942 2.6743712 5.03516978 6.2423904 2.28753563 10.0503168 0 13.2199232 3.40056247 13.2199232 6.77419482 8.5504544 10.1485893 13.2199232 13.5494059 13.2199232"></polygon>
            </g>
        </g>
        <path d="M371.200604,267.74245 L363.254095,267.744527 L363.254095,262.366414 L371.200604,262.366414 C372.606459,262.366414 373.745133,263.526572 373.745133,265.054496 C373.745133,266.584498 372.606459,267.74245 371.200604,267.74245 Z M363.254095,250.941899 L369.750792,250.941899 C371.246472,250.941899 372.456751,252.144636 372.456751,253.528336 C372.456751,254.913984 371.246472,256.118928 369.750792,256.118928 L363.254095,256.118928 L363.254095,250.941899 Z M355.081941,274.296948 L373.6813,274.296948 C378.654541,274.296948 382.684812,271.243176 382.684812,266.352778 C382.684812,262.53712 380.233931,260.005465 376.79816,258.89217 C376.79816,258.89217 376.656479,258.857639 376.46498,258.84959 C376.656479,258.831157 376.79816,258.790654 376.79816,258.790654 C378.766281,257.996056 380.945904,255.883054 380.945904,252.284837 C380.945904,247.721573 376.983543,244.810079 372.091973,244.810079 L355.081941,244.810079 L355.081941,274.296948 Z M349.09973,281.103158 L350.898394,281.103158 L350.898394,237.994652 L349.09973,237.994652 L349.09973,281.103158 Z M316.485267,281.103158 L318.283931,281.103158 L318.283931,237.994652 L316.485267,237.994652 L316.485267,281.103158 Z M345.633891,244.810079 L322.478562,244.810079 L322.478562,274.296948 L346.05868,274.296948 L346.05868,267.498787 L330.6102,267.498787 L330.6102,262.74846 L341.25273,262.74846 L341.25273,256.242772 L330.6102,256.242772 L330.6102,251.547486 L345.633891,251.547486 L345.633891,244.810079 Z M312.525964,248.983377 L307.331282,252.935081 C304.878489,250.785601 301.7178,250.362923 299.972904,250.362923 C298.208131,250.362923 296.368568,250.876861 296.083422,252.167094 C295.807194,253.418643 296.947907,254.391867 298.910167,254.934365 C301.147507,255.549948 303.184558,256.092316 306.322186,257.004787 C310.988493,258.361875 314.179125,260.418017 314.179125,265.188596 C314.179125,271.763345 308.451991,275.170474 300.778525,275.170474 C293.106205,275.170474 287.877631,271.096744 286.315188,269.197288 L291.805973,265.013864 C295.663729,268.439427 298.345735,268.922859 300.587153,268.922859 C303.159585,268.922859 305.564471,268.36011 305.873698,266.887227 C306.124826,265.696433 305.155609,264.74969 302.964264,264.231598 C300.485351,263.648468 298.392622,263.179057 296.058449,262.553477 C289.730063,260.860947 287.945414,257.112404 287.945414,253.745777 C287.945414,249.109298 292.181964,244.346898 299.929074,244.346898 C307.873672,244.346898 312.525964,248.983377 312.525964,248.983377 L312.525964,248.983377 Z" id="Fill-1" fill="#000000"></path>
        <g id="Group-7" transform="translate(94.4097, 151.9812)" fill="#000000">
            <path d="M109.027977,15.1264593 C108.09181,15.1264593 107.33613,15.8596164 107.33613,16.7592695 C107.33613,17.6681087 108.09181,18.4006916 109.027977,18.4006916 C109.960002,18.4006916 110.710948,17.6681087 110.710948,16.7592695 C110.710948,15.8596164 109.960002,15.1264593 109.027977,15.1264593 Z M109.027977,18.2037669 C108.206612,18.2037669 107.543838,17.5607474 107.543838,16.7592695 C107.543838,15.9664035 108.206612,15.3239582 109.027977,15.3239582 C109.8452,15.3239582 110.507974,15.9664035 110.507974,16.7592695 C110.507974,17.5607474 109.8452,18.2037669 109.027977,18.2037669 L109.027977,18.2037669 Z" id="Fill-2"></path>
            <path d="M109.893725,16.3309726 C109.893725,16.1765331 109.823305,16.0140559 109.681874,15.936549 C109.540443,15.8555975 109.381259,15.8469856 109.222667,15.8469856 L108.40071,15.8469856 L108.40071,17.6767205 L108.630905,17.6767205 L108.630905,16.8321833 L109.054606,16.8321833 L109.593702,17.6767205 L109.867687,17.6767205 L109.297821,16.8321833 C109.63335,16.8235715 109.893725,16.6909487 109.893725,16.3309726 Z M108.984187,16.6565012 L108.630905,16.6565012 L108.630905,16.0094629 L109.169408,16.0094629 C109.403746,16.0094629 109.659979,16.0439103 109.659979,16.3263796 C109.659979,16.6995606 109.248704,16.6565012 108.984187,16.6565012 L108.984187,16.6565012 Z" id="Fill-3"></path>
            <path d="M99.136678,7.48486166 L102.587241,3.91093638 C102.787257,3.64856147 102.886673,3.46484161 102.886673,3.30753149 C102.886673,3.04515657 102.653519,2.94009178 101.922693,2.94009178 L101.052211,2.94009178 L101.052211,0.68378233 L110.474243,0.68378233 L110.474243,2.94009178 L109.235686,2.94009178 C107.805989,2.94009178 107.539696,3.14964724 105.54605,5.58967654 L100.087639,11.307957 L100.087639,14.7974859 C100.087639,15.6902496 100.552764,16.0037216 101.883045,16.0037216 L103.943559,16.0037216 L103.943559,18.181376 L90.7466786,18.181376 L90.7466786,16.0037216 L92.8077851,16.0037216 C94.1374739,16.0037216 94.6031905,15.6902496 94.6031905,14.7974859 L94.6031905,11.307957 L88.1748816,4.40870236 C87.1114856,3.2024667 87.2588343,2.94009178 84.3012086,2.94009178 L84.3012086,0.68378233 L96.2358614,0.68378233 L96.2358614,2.94009178 L95.3860914,2.94009178 C94.5215274,2.94009178 94.1558186,3.0974019 94.1558186,3.41202215 C94.1558186,3.67497119 94.4215196,3.88510078 94.5878047,4.09408211 L97.8401278,7.53251399 C98.2253647,7.92234456 98.6964072,7.97344164 99.136678,7.48486166" id="Fill-4"></path>
            <path d="M19.0612407,0.683208205 L21.9401621,0.683208205 L21.9401621,6.97905793 L19.2813761,6.97905793 C19.0458549,5.72057694 18.2345494,5.2308487 17.4936636,4.57060548 C16.1574654,3.37987118 13.2655252,2.3883581 10.8327923,2.3883581 C7.69290395,2.3883581 5.04299442,3.33336709 5.04299442,4.72274848 C5.04299442,8.57971716 23,5.51044736 23,12.8029773 C23,16.6071265 19.1535556,18.7319614 12.2459196,18.7319614 C9.85460997,18.7319614 6.2359863,18.0114351 4.10090957,16.9119866 C3.43103516,16.5365092 3.14758124,17.2662215 3.02212773,18.1808019 L0.0704196593,18.1808019 L0.0704196593,11.6748226 L2.73985733,11.6748226 C3.32866037,13.3283012 4.13996585,13.6687571 4.88617753,14.3249815 C6.18095245,15.4789718 9.26284812,16.318916 12.0891027,16.2919321 C16.349788,16.2511693 17.815582,15.3474973 17.815582,14.0356227 C17.815582,12.7243222 16.3663573,12.409702 11.6967646,11.7012323 L7.73196024,11.0719918 C3.25764894,10.4157674 0,9.44492284 0,5.98237773 C0,2.3883581 4.12162123,0.132048645 10.6369191,0.132048645 C13.3821023,0.132048645 15.6805053,0.488005861 17.8848182,1.69768627 C18.4961082,2.08177559 19.0689336,2.12827968 19.0612407,0.683208205" id="Fill-5"></path>
            <path d="M75.2448853,11.2235607 L75.3022862,4.22670488 C75.3022862,3.30867974 74.8105322,2.99348536 73.4033225,2.99348536 L71.7505317,2.99348536 L71.7505317,0.816405099 L82.2661396,0.816405099 L82.2661396,2.99348536 L80.8950274,2.99348536 C79.4878178,2.99348536 78.9954719,3.30867974 78.9954719,4.22670488 L78.9954719,18.3139988 L74.8785848,18.282996 L61.5509245,6.03691956 L61.5509245,14.9295346 C61.5509245,15.8217241 62.0432704,16.16218 63.4498883,16.16218 L65.2784324,16.16218 L65.2784324,18.3139988 L54.3586511,18.3139988 L54.3586511,16.16218 L56.1676671,16.16218 C57.574285,16.16218 58.0672226,15.8217241 58.0672226,14.9295346 L58.0672226,4.22670488 C58.0672226,3.30867974 57.574285,2.99348536 56.1676671,2.99348536 L54.3586511,2.99348536 L54.3586511,0.816405099 L63.8013948,0.816405099 L75.2448853,11.2235607" id="Fill-6"></path>
            <path d="M40.0220369,0 C31.6415057,0 26.395537,3.59401963 26.395537,9.36511953 C26.395537,15.0323029 31.568719,18.5993387 39.7663958,18.5993387 C48.4741713,18.5993387 53.539061,15.0845482 53.539061,9.07690901 C53.539061,3.67324882 48.0729568,0 40.0220369,0 Z M39.8314896,16.3171936 C35.1926685,16.3171936 32.5261897,13.7198542 32.5261897,9.23421914 C32.5261897,4.85307475 35.3086539,2.25573533 40.0628685,2.25573533 C44.6241688,2.25573533 47.2912394,4.90589421 47.2912394,9.41793899 C47.2912394,13.824919 44.5857043,16.3171936 39.8314896,16.3171936 L39.8314896,16.3171936 Z" id="Fill-7"></path>
        </g>
        <path d="M92.2788488,17.3664 C94.657467,14.5128 96.3423215,10.626 96.3423215,6.69 C96.3423215,6.1488 96.292767,5.6076 96.1936579,5.1648 C92.4226779,5.3088 87.8970301,7.60694634 85.1015961,10.7343134 L84.8952215,10.9704 C82.7148215,13.4304 80.6830852,17.3664 80.6830852,21.3024 C80.6830852,21.8928 80.7821943,22.4832 80.8317488,22.68 C81.0795215,22.7292 81.4759579,22.7784 81.8723943,22.7784 C85.3412125,22.7784 89.7020125,20.466 92.2788488,17.3664 Z M95.0043488,23.6148 L95.4778996,23.6188119 C98.1589989,23.6674594 105.386026,24.27285 110.217594,31.1916 L109.569848,31.6235514 C107.598884,32.97141 101.941985,37.38342 101.941985,45.7056 C101.941985,57.0216 111.902449,61.056 112.199776,61.1544 L112.102117,61.4967167 C111.710636,62.77086 110.133108,67.318918 106.946994,71.9784 L106.242558,72.9789853 C103.172,77.3030449 99.835917,81.3756 95.0043488,81.3756 C89.751567,81.3756 88.4135943,78.3252 82.4174943,78.3252 C76.5205034,78.3252 74.4392125,81.474 69.6819761,81.474 C64.8751852,81.474 61.5550306,77.0952 57.7393306,71.7816 C53.2794215,65.484 49.7114943,55.7424 49.7114943,46.4928 C49.7114943,31.6836 59.4241852,23.8116 68.9882125,23.8116 C74.0427761,23.8116 78.2549125,27.108 81.4759579,27.108 C84.4987852,27.108 89.206467,23.6148 95.0043488,23.6148 Z" id="" fill="#000000" fill-rule="nonzero"></path>
        <g id="Group" transform="translate(479.9051, 239.4991)" fill="#000000" fill-rule="nonzero">
            <path d="M25.6255927,15.9942379 C28.0001716,15.9942379 28.633473,18.2333746 28.5639986,20.2941729 L21.6362358,20.2941729 C22.2012676,17.9632385 23.7734774,15.9942379 25.6255927,15.9942379 L25.6255927,15.9942379 Z M21.2535243,22.7844391 L29.9446518,22.7844391 C30.2105019,22.7844391 30.4811709,22.7262061 30.7128861,22.5401843 C31.0305408,22.2854153 31.4132524,21.8575651 31.6264946,21.6177587 C31.8264845,21.3921061 31.9907332,21.2097238 32.003584,20.8983395 C32.1489582,17.4383334 30.2566843,13.3850795 25.7569114,13.3850795 C20.8499301,13.3850795 17.5404586,18.5524424 17.5404586,23.1682102 C17.5404586,27.8595999 19.9150376,31.2318522 24.8159951,31.2318522 C27.8732704,31.2318522 30.4181219,30.1173388 31.8582098,28.8936386 L30.6385927,26.5647262 C29.4169676,27.6056397 27.3327354,28.6146059 25.4681709,28.6146059 C21.946662,28.6146059 21.0792359,25.2985645 21.2535243,22.7844391 L21.2535243,22.7844391 Z" id="Fill-1"></path>
            <path d="M38.5839736,18.2217262 C38.132755,18.8938787 37.6830911,20.0255392 37.5824316,21.2680029 C37.3737285,23.8327741 36.884034,30.7856828 36.884034,30.7856828 L33.4421811,30.7856828 C33.4421811,30.7856828 34.1405788,22.1967955 34.3446182,19.3317962 C34.5129021,16.9772256 33.6734258,15.1473412 32.88836,13.9598717 L36.2085665,13.9598717 C36.6951519,14.5460703 37.0519293,15.826419 37.2726804,16.6505187 C37.9967288,14.8923307 39.6418691,13.3850795 41.2726296,13.3850795 C42.1610754,13.3850795 42.634058,13.5740969 42.9741237,13.8315517 L42.7016825,16.9971864 C42.1540797,16.8040954 41.8369442,16.7079572 41.1653632,16.7079572 C40.3530921,16.7079572 39.1665545,17.3548531 38.5839736,18.2217262" id="Fill-2"></path>
            <path d="M47.3901091,27.0265537 C47.6531898,23.72844 48.4003231,13.8312488 48.4003231,13.8312488 L44.9177113,13.8312488 C44.9177113,13.8312488 44.1421043,23.583893 43.8774194,26.8339601 C43.6335885,29.8303574 45.1118136,31.2318522 47.2778185,31.2318522 C48.8799643,31.2318522 50.3092628,30.5400626 51.3058415,29.8702605 L50.1793266,27.7525458 C49.4863333,28.2061383 48.8410636,28.5709666 48.3429747,28.5709666 C47.8448858,28.5709666 47.2858392,28.3319552 47.3901091,27.0265537" id="Fill-3"></path>
            <path d="M49.5457998,8.03124055 C49.4531273,9.26324951 48.3005893,10.2618943 46.9716094,10.2618943 C45.6430341,10.2618943 44.641443,9.26324951 44.7341154,8.03124055 C44.8267879,6.79923157 45.979326,5.80020111 47.3083058,5.80020111 C48.6372858,5.80020111 49.6388769,6.79923157 49.5457998,8.03124055" id="Fill-4"></path>
            <path d="M61.1024713,25.3463049 C60.3680359,27.2352167 58.7391311,28.5585039 57.4353812,28.5585039 C55.5584039,28.5585039 54.7918835,26.2939883 54.7918835,23.9330502 C54.7918835,20.5711746 56.0737216,15.9707343 58.9887687,15.9707343 C60.9854781,15.9707343 61.8372979,18.9868609 61.8372979,20.9782467 C61.8372979,22.6291282 61.6514393,23.9330502 61.1024713,25.3463049 L61.1024713,25.3463049 Z M62.3792228,13.951511 C62.3792228,13.951511 62.3275736,14.6833534 62.2344487,15.9675068 C61.7023058,14.8112442 60.2854756,13.3850795 58.3548927,13.3850795 C53.7499008,13.3850795 51.1944414,18.7298688 51.1944414,23.9330502 C51.1944414,28.2583436 53.3367076,31.1925716 56.4536559,31.1925716 C58.7872587,31.1925716 60.4341625,29.7361488 61.2672008,28.5605211 C61.1928573,29.4202543 61.1255569,30.160569 61.0680385,30.7177213 C60.9361766,32.0071194 60.7186241,33.1141622 60.1806121,33.8548803 C59.5158249,34.7706918 58.3216338,35.2592592 57.0366653,35.2592592 C55.4519753,35.2592592 53.1915422,34.1259927 52.1452555,33.2799766 L50.8673301,35.6889241 C52.2825952,36.9186129 54.6917153,37.9243919 56.973669,37.9243919 C58.9347718,37.9243919 61.1306436,37.350295 62.51578,35.9850499 C63.5929779,34.9235961 64.3105882,33.3291963 64.4487106,31.5020111 C64.7812999,27.1145878 65.7767199,13.951511 65.7767199,13.951511 L62.3792228,13.951511 L62.3792228,13.951511 Z" id="Fill-5"></path>
            <path d="M75.6158749,15.9942379 C77.9903289,15.9942379 78.6235966,18.2333746 78.5537244,20.2941729 L71.626327,20.2941729 C72.1917304,17.9632385 73.7642589,15.9942379 75.6158749,15.9942379 L75.6158749,15.9942379 Z M71.2440371,22.7844391 L79.934706,22.7844391 C80.2005421,22.7844391 80.4711971,22.7262061 80.7029002,22.5401843 C81.019735,22.2854153 81.4032292,21.8575651 81.6164606,21.6177587 C81.8168415,21.3921061 81.9802783,21.2097238 81.9939311,20.8983395 C82.1388963,17.4383334 80.2471239,13.3850795 75.7471867,13.3850795 C70.8404643,13.3850795 67.5307658,18.5524424 67.5307658,23.1682102 C67.5307658,27.8595999 69.9052195,31.2318522 74.80632,31.2318522 C77.8634342,31.2318522 80.4081517,30.1173388 81.8481637,28.8936386 L80.6282091,26.5647262 C79.4070496,27.6056397 77.3229276,28.6146059 75.4580599,28.6146059 C71.9371383,28.6146059 71.0701595,25.2985645 71.2440371,22.7844391 L71.2440371,22.7844391 Z" id="Fill-6"></path>
            <path d="M91.402491,15.9942379 C93.7766021,15.9942379 94.410288,18.2333746 94.3404135,20.2941729 L87.4132443,20.2941729 C87.9786617,17.9632385 89.5504269,15.9942379 91.402491,15.9942379 L91.402491,15.9942379 Z M87.0305429,22.7844391 L95.7214301,22.7844391 C95.9872732,22.7844391 96.2579344,22.7262061 96.4896436,22.5401843 C96.8068874,22.2854153 97.1903917,21.8575651 97.4032267,21.6177587 C97.6032111,21.3921061 97.7674556,21.2097238 97.7803053,20.8983395 C97.9256755,17.4383334 96.0330527,13.3850795 91.5338057,13.3850795 C86.6269602,13.3850795 83.3171789,18.5524424 83.3171789,23.1682102 C83.3171789,27.8595999 85.6916919,31.2318522 90.5925137,31.2318522 C93.6501061,31.2318522 96.1952893,30.1173388 97.635337,28.8936386 L96.4153521,26.5647262 C95.1937604,27.6056397 93.109586,28.6146059 91.2450732,28.6146059 C87.7240631,28.6146059 86.8562596,25.2985645 87.0305429,22.7844391 L87.0305429,22.7844391 Z" id="Fill-8"></path>
            <path d="M20.6100389,8.72138423 C20.6100389,3.43638676 16.4808499,0.0586929953 9.66226274,0.000491738619 C7.02455341,-0.0225462588 3.84864876,0.768020812 2.13897119,1.50766178 L1.91840582,4.64244614 C4.05974443,3.86198345 7.04586026,2.97320176 9.53442161,3.00230239 C13.5401098,3.04959091 16.6978642,4.98680357 16.6978642,8.76624765 C16.6978642,12.7865804 13.86208,15.5976202 9.60899562,16.1553822 L10.288842,7.29626178 L6.65405093,7.29626178 L5.95368682,16.0401922 C4.2692618,15.6841138 2.67913934,14.9226473 1.31471168,13.9813228 L0,16.4556846 C1.3364131,17.5841422 3.490378,18.507683 5.72680831,18.8698242 L4.80864081,30.3395135 L8.52037329,30.3395135 L9.3943488,18.952276 C15.5441376,18.350863 20.6100389,14.4796711 20.6100389,8.72138423" id="Fill-9"></path>
        </g>
        <g id="Group-6" transform="translate(208.6544, 18.4841)" fill="#000000">
            <path d="M50.539776,28.151808 C40.3036512,22.0728528 23.419392,21.513912 13.6477872,24.4796352 C12.0782784,24.9559104 10.4188992,24.0700992 9.9437616,22.5009696 C9.4682448,20.9307024 10.3529184,19.2724608 11.9231856,18.7954272 C23.14068,15.3905904 41.7874608,16.0481232 53.57148,23.0432256 C54.9832416,23.8812576 55.4458656,25.704072 54.6093504,27.1131792 C53.7720768,28.5245616 51.9477456,28.98984 50.539776,28.151808 M50.2045632,37.1555328 C49.4863584,38.3208144 47.9627328,38.6863632 46.798968,37.9708128 C38.2654512,32.7253392 25.2520656,31.2055056 15.1558656,34.2702 C13.8468672,34.6657056 12.4639248,33.9277824 12.066144,32.62068 C11.671776,31.3116816 12.4100784,29.9313936 13.7171808,29.5332336 C25.2505488,26.0332176 39.58848,27.7282416 49.3900416,33.7518336 C50.5538064,34.4685216 50.9201136,35.9929056 50.2045632,37.1555328 M46.3189008,45.8024304 C45.7482048,46.738296 44.5298352,47.0314176 43.5973824,46.4611008 C36.1404144,41.903496 26.754456,40.8743472 15.700776,43.3990608 C14.6356032,43.6432656 13.5738432,42.9758736 13.3311552,41.91108 C13.0869504,40.8459072 13.7520672,39.7841472 14.8195152,39.54108 C26.9159952,36.7759536 37.2920448,37.9658832 45.6621264,43.0805328 C46.5953376,43.6504704 46.8892176,44.8695984 46.3189008,45.8024304 M31.7553456,0 C14.2177248,0 0,14.2173456 0,31.7549664 C0,49.2944832 14.2177248,63.5110704 31.7553456,63.5110704 C49.2937248,63.5110704 63.5110704,49.2944832 63.5110704,31.7549664 C63.5110704,14.2173456 49.2937248,0 31.7553456,0" id="Fill-1"></path>
            <path d="M86.395525,29.3157624 C80.9126722,28.0082808 79.9366114,27.0906168 79.9366114,25.1623848 C79.9366114,23.340708 81.651733,22.1151336 84.2022322,22.1151336 C86.6746162,22.1151336 89.125765,23.0460696 91.6963618,24.9625464 C91.7740978,25.020564 91.8715522,25.0436952 91.9674898,25.0285272 C92.0634274,25.0141176 92.1483682,24.961788 92.2044898,24.882156 L94.8816418,21.1083576 C94.9916098,20.9528856 94.961653,20.7386376 94.8133858,20.619948 C91.7543794,18.1653864 88.3097266,16.972044 84.283381,16.972044 C78.3633106,16.972044 74.2281346,20.5243896 74.2281346,25.6079448 C74.2281346,31.0589448 77.795269,32.9886936 83.9595442,34.4789496 C89.2061554,35.68746 90.0915874,36.6995448 90.0915874,38.5098456 C90.0915874,40.5154344 88.3013842,41.762244 85.4198434,41.762244 C82.2193954,41.762244 79.6089826,40.6841784 76.6887634,38.1552936 C76.6163362,38.0931048 76.5169858,38.0642856 76.4252194,38.0695944 C76.3285234,38.0775576 76.2401698,38.1223032 76.1787394,38.1962472 L73.1769922,41.7686904 C73.0510978,41.9169576 73.0670242,42.1384104 73.212637,42.26658 C76.610269,45.2998008 80.789053,46.9019208 85.2981202,46.9019208 C91.677781,46.9019208 95.799685,43.4163144 95.799685,38.021436 C95.799685,33.4619352 93.0758914,30.9402552 86.395525,29.3157624" id="Fill-3"></path>
            <path d="M114.863358,35.4265325 C114.863358,39.2765501 112.491841,41.9631821 109.096105,41.9631821 C105.739048,41.9631821 103.20675,39.1544477 103.20675,35.4265325 C103.20675,31.6989965 105.739048,28.8898829 109.096105,28.8898829 C112.437237,28.8898829 114.863358,31.6383245 114.863358,35.4265325 M110.232568,23.9083325 C107.467441,23.9083325 105.199446,24.9973949 103.329232,27.2289869 L103.329232,24.7171661 C103.329232,24.5188445 103.168451,24.3573053 102.970129,24.3573053 L98.0610062,24.3573053 C97.8626846,24.3573053 97.702283,24.5188445 97.702283,24.7171661 L97.702283,52.6270445 C97.702283,52.8253661 97.8626846,52.9869053 98.0610062,52.9869053 L102.970129,52.9869053 C103.168451,52.9869053 103.329232,52.8253661 103.329232,52.6270445 L103.329232,43.8170909 C105.199825,45.9167213 107.4682,46.9420781 110.232568,46.9420781 C115.370349,46.9420781 120.571456,42.9870221 120.571456,35.4265325 C120.571456,27.8645261 115.370349,23.9083325 110.232568,23.9083325" id="Fill-5"></path>
            <path d="M133.903407,42.0033773 C130.384052,42.0033773 127.73079,39.1756829 127.73079,35.4265325 C127.73079,31.6614557 130.292286,28.9293197 133.822259,28.9293197 C137.363987,28.9293197 140.035451,31.7570141 140.035451,35.5088189 C140.035451,39.2731373 137.456511,42.0033773 133.903407,42.0033773 M133.903407,23.9083325 C127.286747,23.9083325 122.103083,29.0032637 122.103083,35.5088189 C122.103083,41.9434637 127.251102,46.9849277 133.822259,46.9849277 C140.46243,46.9849277 145.66202,41.9070605 145.66202,35.4265325 C145.66202,28.9676189 140.498075,23.9083325 133.903407,23.9083325" id="Fill-7"></path>
            <path d="M159.791657,24.3573811 L154.389194,24.3573811 L154.389194,18.8339539 C154.389194,18.6356323 154.229172,18.4740931 154.03085,18.4740931 L149.122106,18.4740931 C148.923406,18.4740931 148.761866,18.6356323 148.761866,18.8339539 L148.761866,24.3573811 L146.401346,24.3573811 C146.203783,24.3573811 146.043761,24.5189203 146.043761,24.7172419 L146.043761,28.9362211 C146.043761,29.1345427 146.203783,29.2960819 146.401346,29.2960819 L148.761866,29.2960819 L148.761866,40.2136291 C148.761866,44.6256211 150.957814,46.8629011 155.288657,46.8629011 C157.049662,46.8629011 158.510719,46.4992483 159.887974,45.7184755 C159.999458,45.6559075 160.069231,45.5353219 160.069231,45.4071523 L160.069231,41.3891491 C160.069231,41.2651507 160.004767,41.1479779 159.898591,41.0831347 C159.791657,41.0160163 159.658558,41.0126035 159.548969,41.0668291 C158.603244,41.5427251 157.688993,41.7622819 156.667049,41.7622819 C155.092231,41.7622819 154.389194,41.0471107 154.389194,39.4442323 L154.389194,29.2960819 L159.791657,29.2960819 C159.989978,29.2960819 160.149622,29.1345427 160.149622,28.9362211 L160.149622,24.7172419 C160.149622,24.5189203 159.989978,24.3573811 159.791657,24.3573811" id="Fill-9"></path>
            <path d="M178.614045,24.378768 L178.614045,23.7003792 C178.614045,21.7046496 179.379271,20.8146672 181.09553,20.8146672 C182.118991,20.8146672 182.941096,21.0179184 183.861794,21.3250704 C183.975175,21.3607152 184.093485,21.3428928 184.185631,21.275016 C184.280431,21.2071392 184.333898,21.0983088 184.333898,20.9834112 L184.333898,16.84596 C184.333898,16.6882128 184.232272,16.5479088 184.080213,16.5016464 C183.107565,16.2123168 181.863031,15.915024 179.999642,15.915024 C175.464789,15.915024 173.068245,18.468936 173.068245,23.2969104 L173.068245,24.3359184 L170.71,24.3359184 C170.511679,24.3359184 170.349381,24.4974576 170.349381,24.6954 L170.349381,28.9363728 C170.349381,29.1343152 170.511679,29.2962336 170.71,29.2962336 L173.068245,29.2962336 L173.068245,46.1361264 C173.068245,46.334448 173.228268,46.4959872 173.42621,46.4959872 L178.335333,46.4959872 C178.533655,46.4959872 178.695194,46.334448 178.695194,46.1361264 L178.695194,29.2962336 L183.278964,29.2962336 L190.30061,46.131576 C189.503532,47.900544 188.719725,48.2524416 187.649623,48.2524416 C186.784668,48.2524416 185.873829,47.9942064 184.942514,47.4849408 C184.854919,47.4367824 184.751397,47.42844 184.656597,47.4580176 C184.562935,47.491008 184.484061,47.5607808 184.444245,47.6517888 L182.780316,51.3023472 C182.701063,51.4748832 182.76856,51.677376 182.93465,51.7668672 C184.671765,52.7076624 186.240136,53.1092352 188.177848,53.1092352 C191.803,53.1092352 193.806693,51.4206576 195.573386,46.8778416 L204.090597,24.8686944 C204.133068,24.7583472 204.120554,24.6332112 204.052677,24.5349984 C203.98518,24.437544 203.876349,24.378768 203.75728,24.378768 L198.646423,24.378768 C198.493605,24.378768 198.356335,24.4762224 198.30628,24.6199392 L193.070666,39.5744496 L187.336024,24.61008 C187.283695,24.4709136 187.149837,24.378768 187.000812,24.378768 L178.614045,24.378768 Z" id="Fill-11"></path>
            <path d="M167.70211,24.3573811 L162.792608,24.3573811 C162.594665,24.3573811 162.433126,24.5189203 162.433126,24.7172419 L162.433126,46.1359747 C162.433126,46.3342963 162.594665,46.4958355 162.792608,46.4958355 L167.70211,46.4958355 C167.900052,46.4958355 168.061971,46.3342963 168.061971,46.1359747 L168.061971,24.7172419 C168.061971,24.5189203 167.900052,24.3573811 167.70211,24.3573811" id="Fill-13"></path>
            <path d="M165.272424,14.6047363 C163.327507,14.6047363 161.749277,16.1791747 161.749277,18.1240915 C161.749277,20.0701459 163.327507,21.6464803 165.272424,21.6464803 C167.216582,21.6464803 168.793296,20.0701459 168.793296,18.1240915 C168.793296,16.1791747 167.216582,14.6047363 165.272424,14.6047363" id="Fill-15"></path>
            <path d="M208.482984,26.4879163 L207.583522,26.4879163 L207.583522,27.6349963 L208.482984,27.6349963 C208.931957,27.6349963 209.200052,27.4154395 209.200052,27.0612667 C209.200052,26.6877547 208.931957,26.4879163 208.482984,26.4879163 M209.065815,28.1241643 L210.043392,29.4923179 L209.219391,29.4923179 L208.339647,28.2375451 L207.583522,28.2375451 L207.583522,29.4923179 L206.893757,29.4923179 L206.893757,25.8660283 L208.510666,25.8660283 C209.353248,25.8660283 209.907639,26.2971787 209.907639,27.0225883 C209.907639,27.6171739 209.564084,27.9804475 209.065815,28.1241643 M208.299831,24.6590347 C206.530484,24.6590347 205.191149,26.0658667 205.191149,27.7885723 C205.191149,29.5101403 206.520624,30.8983915 208.282008,30.8983915 C210.050976,30.8983915 211.391828,29.4923179 211.391828,27.7688539 C211.391828,26.0469067 210.061215,24.6590347 208.299831,24.6590347 M208.282008,31.2438427 C206.338988,31.2438427 204.827117,29.6834347 204.827117,27.7885723 C204.827117,25.8937099 206.358706,24.3154795 208.299831,24.3154795 C210.242852,24.3154795 211.754722,25.8755083 211.754722,27.7688539 C211.754722,29.6640955 210.224271,31.2438427 208.282008,31.2438427" id="Fill-17"></path>
        </g>
        <g id="Group-5" transform="translate(298.6936, 136.8762)" fill="#000000">
            <path d="M47.1823975,0.30336 L47.1820562,15.0602566 C47.1801223,16.2532704 47.1672295,16.730304 47.0812775,16.98816 C46.2723175,22.2464 41.6207975,22.54976 38.4860775,22.34752 C38.2838375,22.34752 38.0815975,22.2464 37.8793575,22.2464 C37.5759975,22.2464 37.5759975,21.84192 37.7782375,21.7408 C38.3849575,21.43744 41.5196775,19.7184 41.9241575,16.1792 C42.0117948,15.5657387 42.0234798,14.6484679 42.0250378,14.2831176 L42.0252775,0.30336 L47.1823975,0.30336 Z M32.6211175,0 C35.6547175,0 37.6771175,1.0112 37.6771175,1.0112 L37.6771175,4.44928 C37.6771175,4.44928 34.9468775,3.13472 32.9244775,3.13472 C30.9020775,3.13472 29.3852775,3.84256 29.3852775,5.35936 C29.3852775,7.17952 32.8233575,8.0896 34.1379175,8.49408 C35.4524775,8.89856 39.1939175,10.6176 39.1939175,13.95456 C39.1939175,17.49376 37.2726375,20.7296 30.4975975,20.7296 C26.9583975,20.7296 24.9359975,19.61728 24.9359975,19.61728 L24.9359975,16.28032 C26.1494375,16.6848 28.7785575,17.39264 30.0931175,17.39264 C32.4188775,17.39264 33.8345575,16.88704 33.8345575,15.37024 C33.8345575,13.44896 30.1942375,12.43776 28.7785575,11.93216 C27.3628775,11.32544 24.1270375,10.01088 24.1270375,6.0672 C24.1270375,1.71904 27.9695975,0 32.6211175,0 Z M15.0262375,30.94272 C21.7424166,30.94272 23.6717835,33.7584919 25.0590092,36.3221051 L25.2231457,36.628332 L25.3037716,36.7801695 L25.4631574,37.0805564 C25.780256,37.6763569 26.0905766,38.2399618 26.4527975,38.72896 C28.0707175,40.9536 32.0143975,42.976 35.8569575,42.976 C39.6995175,42.976 43.6431975,40.9536 45.2611175,38.72896 C45.6233384,38.2399618 45.933659,37.6763569 46.2507576,37.0805564 L46.4101434,36.7801695 L46.4907693,36.628332 L46.6549057,36.3221051 C48.0421315,33.7584919 49.9714984,30.94272 56.6876775,30.94272 L64.6761575,30.94272 C64.9795175,30.94272 64.9795175,31.04384 64.8783975,31.3472 C64.1705575,32.66176 61.7436775,36.70656 59.0134375,36.70656 L55.2719975,36.70656 C53.2495975,36.70656 52.8451175,38.12224 51.8339175,39.74016 C49.0025575,45.20064 43.4409575,48.94208 35.8569575,48.94208 C28.2729575,48.94208 22.7113575,45.20064 19.8799975,39.74016 C18.8687975,38.12224 18.4643175,36.70656 16.4419175,36.70656 L12.7004775,36.70656 C9.97023747,36.70656 7.54335747,32.66176 6.83551747,31.3472 C6.73439747,31.14496 6.73439747,30.94272 7.03775747,30.94272 L15.0262375,30.94272 Z M71.3500775,22.54976 C71.6534375,22.54976 71.6534375,22.752 71.5523175,22.95424 C70.8444775,24.2688 68.7209575,27.90912 65.9907175,27.90912 L55.1708775,27.90912 C49.2047975,27.90912 45.2611175,31.14496 44.0476775,34.48192 C43.8454375,35.08864 43.2387175,36.50432 42.4297575,36.50432 C41.4185575,36.60544 41.2163175,35.08864 41.3174375,31.75168 C41.5196775,26.2912 45.9689575,22.54976 52.8451175,22.54976 L71.3500775,22.54976 Z M18.7676775,22.54976 C25.6438375,22.54976 30.0931175,26.2912 30.2953575,31.75168 C30.4975975,35.08864 30.2953575,36.60544 29.1830375,36.50432 C28.3740775,36.50432 27.7673575,35.08864 27.5651175,34.48192 C26.3516775,31.14496 22.4079975,27.90912 16.4419175,27.90912 L5.62207747,27.90912 C2.89183747,27.90912 0.768317466,24.2688 0.0604774665,22.95424 C-0.0406425335,22.752 -0.0406425335,22.54976 0.262717466,22.54976 Z" id="Combined-Shape"></path>
        </g>
        <g id="Group-11" transform="translate(470.7602, 151.9812)">
            <polygon id="Fill-1" fill="#000000" points="20.7569939 0.296305676 20.7569939 13.5893844 9.66886438 0.296305676 0 0.296305676 0 18.1018885 5.58929496 18.1018885 5.58929496 4.58191573 16.8752825 18.1018885 26.345904 18.1018885 26.345904 0.296305676"></polygon>
            <g id="Group-10" transform="translate(0.0002, 0)">
                <g id="Group-4" transform="translate(28.5923, 0.0001)">
                    <mask id="mask-8" fill="white">
                        <use xlink:href="#path-7"></use>
                    </mask>
                    <g id="Clip-3"></g>
                    <path d="M16.7848221,13.8159052 C18.0605056,13.8159052 18.5104977,13.7457472 18.8157533,13.4848937 C19.1033017,13.2415797 19.2291763,12.9269882 19.2291763,11.880962 L19.2291763,6.44632777 C19.2291763,5.40067474 19.1033017,5.08757592 18.8157533,4.84239604 C18.5104977,4.58191573 18.0605056,4.51325044 16.7848221,4.51325044 L7.70953164,4.51325044 C6.43307833,4.51325044 5.98424101,4.58191573 5.67821556,4.84239604 C5.39105206,5.08757592 5.26594732,5.40067474 5.26594732,6.44632777 L5.26594732,11.880962 C5.26594732,12.9269882 5.39105206,13.2415797 5.67821556,13.4848937 C5.98424101,13.7457472 6.43307833,13.8159052 7.70953164,13.8159052 L16.7848221,13.8159052 Z M24.4943538,12.5963499 C24.4943538,15.0701664 24.0266545,15.9240044 23.2560093,16.7431366 C22.0692465,17.962692 20.343186,18.3287825 17.0184793,18.3287825 L7.47625941,18.3287825 C4.15078289,18.3287825 2.42510732,17.962692 1.23988423,16.7431366 C0.466929393,15.9240044 0,15.0701664 0,12.5963499 L0,5.73168625 C0,3.25712335 0.466929393,2.40477806 1.23988423,1.58527269 C2.42510732,0.365717333 4.15078289,0 7.47625941,0 L17.0184793,0 C20.343186,0 22.0692465,0.365717333 23.2560093,1.58527269 C24.0266545,2.40477806 24.4943538,3.25712335 24.4943538,5.73168625 L24.4943538,12.5963499 Z" id="Fill-2" fill="#000000" mask="url(#mask-8)"></path>
                </g>
                <path d="M71.0751222,0.296156404 L78.783884,0.296156404 L68.3794037,8.62406254 L80.1165382,18.1017392 L71.8650143,18.1017392 L61.2091698,8.81513118 L71.0751222,0.296156404 Z M55.3696653,18.1017392 L61.2091698,18.1017392 L61.2091698,0.296156404 L55.3696653,0.296156404 L55.3696653,18.1017392 Z" id="Fill-5" fill="#000000"></path>
                <mask id="mask-10" fill="white">
                    <use xlink:href="#path-9"></use>
                </mask>
                <g id="Clip-8"></g>
                <polygon id="Fill-7" fill="#000000" mask="url(#mask-10)" points="81.1933629 18.1018885 87.0355619 18.1018885 87.0355619 0.296305676 81.1933629 0.296305676"></polygon>
                <path d="M98.3019176,11.132249 L105.562612,11.132249 L101.93111,4.68666763 L98.3019176,11.132249 Z M109.301511,18.1017765 L107.575451,15.0002696 L96.2729111,15.0002696 L94.5649427,18.1017765 L88.1126175,18.1017765 L98.4639763,0.296193722 L105.725056,0.296193722 L116.077569,18.1017765 L109.301511,18.1017765 Z" id="Fill-9" fill="#000000" mask="url(#mask-10)"></path>
            </g>
        </g>
        <g id="Group-10" transform="translate(368.1163, 386.9594)"></g>
    </g>
</svg>