<?xml version="1.0" encoding="UTF-8"?>
<svg width="24px" height="24px" viewBox="0 0 24 24" version="1.1" xmlns="http://www.w3.org/2000/svg" xmlns:xlink="http://www.w3.org/1999/xlink">
    <title>socialThreads@2x</title>
    <g id="socialThreads" stroke="none" stroke-width="1" fill="none" fill-rule="evenodd">
        <path d="M17.2645313,11.196576 C17.1697708,11.1511552 17.0735208,11.1074417 16.9760104,11.0655844 C16.8061979,7.93666875 15.0965,6.14536458 12.2257177,6.12703125 C12.2127125,6.12695104 12.199776,6.12695104 12.1867708,6.12695104 C10.4696708,6.12695104 9.04158437,6.85989479 8.16260417,8.19362187 L9.74144792,9.276675 C10.3980792,8.28043021 11.4285958,8.06805 12.1875271,8.06805 C12.1962927,8.06805 12.2050927,8.06805 12.2137667,8.06813021 C13.1590104,8.07415729 13.8722917,8.34898542 14.3339479,8.8849375 C14.6699063,9.27512813 14.8946042,9.81432292 15.0058646,10.4948104 C14.1678021,10.3523719 13.2614479,10.3085781 12.2925312,10.3641281 C9.56312188,10.5213479 7.80843854,12.1131969 7.9262875,14.325125 C7.98608854,15.447125 8.54504896,16.412375 9.50013542,17.0429271 C10.30765,17.5759688 11.3476771,17.8366458 12.428576,17.7776354 C13.8560208,17.699375 14.9758438,17.1547604 15.7570729,16.1589167 C16.3503854,15.4026667 16.7256458,14.4226354 16.8913333,13.1877708 C17.5716146,13.5983229 18.0757813,14.1385833 18.3542188,14.7880417 C18.8276771,15.8920521 18.8552917,17.70625 17.3749896,19.1852917 C16.0780208,20.481 14.519,21.0415417 12.1628802,21.0588438 C9.54931458,21.0394792 7.57270625,20.2013021 6.28757396,18.5675729 C5.08415104,17.0377708 4.46221562,14.8281458 4.4390125,12 C4.46221562,9.17183125 5.08415104,6.96218333 6.28757396,5.43239271 C7.57270625,3.79868646 9.54928021,2.96052083 12.1628458,2.94109896 C14.795375,2.96066979 16.8064271,3.80286875 18.14075,5.44445833 C18.7950208,6.249475 19.2883021,7.26184167 19.6134896,8.44222187 L21.4636667,7.94858542 C21.0695,6.49566875 20.4492604,5.24367396 19.6052396,4.20535417 C17.894625,2.10076542 15.3928125,1.02236071 12.1692969,1 L12.1563948,1 C8.93943333,1.02228302 6.46563646,2.10478958 4.80374271,4.21741979 C3.32488437,6.0974 2.56204583,8.71325729 2.53633333,11.9922656 L2.53633333,12 L2.53633333,12.0077344 C2.56204583,15.2867083 3.32488437,17.9026458 4.80374271,19.7826146 C6.46563646,21.8951875 8.93943333,22.9777708 12.1563948,23 L12.1692969,23 C15.0293542,22.9801771 17.0453333,22.231375 18.7061042,20.5720938 C20.8789479,18.4013125 20.8135208,15.6803021 20.097375,14.0099063 C19.5835833,12.8120521 18.6040104,11.8391479 17.2645313,11.196576 Z M12.3263906,15.8393437 C11.1301406,15.9067187 9.88735833,15.3697812 9.82607917,14.2197083 C9.78065833,13.3669792 10.4329354,12.4154792 12.3998042,12.3021333 C12.6250521,12.2891396 12.8460833,12.2827917 13.0632187,12.2827917 C13.7776458,12.2827917 14.4460104,12.3521948 15.0536458,12.4850312 C14.827,15.3154687 13.4976042,15.7750625 12.3263906,15.8393437 Z" id="Shape" fill="#000000" fill-rule="nonzero"></path>
    </g>
</svg>