<?xml version="1.0" encoding="UTF-8"?>
<svg width="690px" height="108px" viewBox="0 0 690 108" version="1.1" xmlns="http://www.w3.org/2000/svg" xmlns:xlink="http://www.w3.org/1999/xlink">
    <title>Applaud Studio@2x</title>
    <g id="Page-1" stroke="none" stroke-width="1" fill="none" fill-rule="evenodd">
        <g id="Artboard" transform="translate(-28864.000000, -5701.000000)" fill="#000073" fill-rule="nonzero">
            <g id="Group-9" transform="translate(28660.000000, 5667.000000)">
                <path d="M312.039518,60.73375 C315.589601,60.73375 318.758351,61.7011667 321.545768,63.636 C324.333184,65.5708333 326.544809,68.4552083 328.180643,72.289125 C329.816476,76.1230417 330.634393,80.9314167 330.634393,86.71425 C330.634393,91.7474167 330.069434,96.1777083 328.939518,100.005125 C327.809601,103.832542 326.187309,107.042729 324.072643,109.635688 C321.957976,112.228646 319.423788,114.180271 316.47008,115.490563 C313.516372,116.800854 310.216268,117.456 306.569768,117.456 C303.851684,117.456 301.379788,116.995042 299.15408,116.073125 C297.900301,115.553794 296.814883,114.905721 295.897826,114.128906 L295.898393,124.528 C295.898393,127.7585 296.730393,129.918125 298.394393,131.006875 C300.058393,132.095625 302.346393,132.64 305.258393,132.64 L305.258393,134.824 C303.483893,134.754667 301.015788,134.668 297.85408,134.564 C294.692372,134.46 291.336476,134.408 287.786393,134.408 C285.263309,134.408 282.76758,134.46 280.299205,134.564 C277.83083,134.668 275.958559,134.754667 274.682393,134.824 L274.682393,132.64 C276.970393,132.64 278.582393,132.147625 279.518393,131.162875 C280.454393,130.178125 280.922393,128.313167 280.922393,125.568 L280.922393,73.589125 C280.922393,70.469125 280.451143,68.1637917 279.508643,66.673125 C278.566143,65.1824583 276.818726,64.437125 274.266393,64.437125 L274.266393,62.253125 C276.485059,62.461125 278.634393,62.565125 280.714393,62.565125 C283.599309,62.565125 286.313872,62.4437917 288.85808,62.201125 C291.402288,61.9584583 293.749059,61.5944583 295.898393,61.109125 L295.89824,70.7708792 C297.188093,67.8427821 299.053373,65.5338224 301.49408,63.844 C304.488955,61.7705 308.004101,60.73375 312.039518,60.73375 Z M245.272,42.16 L270.522875,107.264 C271.521708,109.731833 272.617229,111.440792 273.809438,112.390875 C275.001646,113.340958 276.090125,113.850667 277.074875,113.92 L277.074875,116 C275.023042,115.861333 272.596646,115.774667 269.795688,115.74 C266.994729,115.705333 264.151792,115.688 261.266875,115.688 C258.063458,115.688 255.0545,115.705333 252.24,115.74 C249.4255,115.774667 247.165125,115.861333 245.458875,116 L245.458875,113.92 C248.994875,113.781333 251.237917,113.174667 252.188,112.1 C253.138083,111.025333 252.919792,108.72 251.533125,105.184 C249.282271,99.0472969 247.196823,93.3615525 245.276779,88.1267667 L222.65175,88.127 L219.874875,95.34625 C218.391792,99.1595833 217.49425,102.269021 217.18225,104.674563 C216.87025,107.080104 217.040063,108.941542 217.691687,110.258875 C218.343312,111.576208 219.410938,112.498396 220.894563,113.025438 C222.378187,113.552479 224.174083,113.850667 226.28225,113.92 L226.28225,116 C223.966083,115.861333 221.771521,115.774667 219.698563,115.74 C217.625604,115.705333 215.500375,115.688 213.322875,115.688 C211.839792,115.688 210.408167,115.705333 209.028,115.74 C207.647833,115.774667 206.43775,115.861333 205.39775,116 L205.39775,113.92 C206.910083,113.6145 208.425396,112.674979 209.943687,111.101438 C211.461979,109.527896 212.956167,106.827417 214.42625,103 L238.05375,42.16 C239.163083,42.2434167 240.366125,42.285125 241.662875,42.285125 C242.959625,42.285125 244.162667,42.2434167 245.272,42.16 Z M305.924643,65.226875 C303.400476,65.226875 301.126288,66.2045833 299.10208,68.16 C297.487709,69.7195076 296.419936,71.8037362 295.898763,74.4126857 L295.898653,111.811957 C296.50747,112.526916 297.242695,113.118555 298.10433,113.586875 C299.379955,114.280208 300.842726,114.626875 302.492643,114.626875 C305.584476,114.626875 308.038768,113.580104 309.855518,111.486563 C311.672268,109.393021 312.972268,106.411688 313.755518,102.542563 C314.538768,98.6734375 314.930393,94.0695417 314.930393,88.730875 C314.930393,82.8104583 314.563143,78.1445417 313.828643,74.733125 C313.094143,71.3217083 312.054143,68.8844792 310.708643,67.4214375 C309.363143,65.9583958 307.768476,65.226875 305.924643,65.226875 Z M234.237521,58.0294518 L234.219845,58.0543292 L223.45175,86.047 L244.513771,86.0465103 C240.259618,74.4480317 236.856295,65.1692488 234.303802,58.2101616 C234.290318,58.1733981 234.268224,58.1131615 234.237521,58.0294518 Z M369.197839,60.73375 C372.747922,60.73375 375.916672,61.7011667 378.704089,63.636 C381.491506,65.5708333 383.703131,68.4552083 385.338964,72.289125 C386.974797,76.1230417 387.792714,80.9314167 387.792714,86.71425 C387.792714,91.7474167 387.227756,96.1777083 386.097839,100.005125 C384.967922,103.832542 383.345631,107.042729 381.230964,109.635688 C379.116297,112.228646 376.58211,114.180271 373.628401,115.490563 C370.674693,116.800854 367.374589,117.456 363.728089,117.456 C361.010006,117.456 358.53811,116.995042 356.312401,116.073125 C355.058167,115.553605 353.972417,114.905251 353.05515,114.128061 L353.056714,124.528 C353.056714,127.7585 353.888714,129.918125 355.552714,131.006875 C357.216714,132.095625 359.504714,132.64 362.416714,132.64 L362.416714,134.824 C360.642214,134.754667 358.17411,134.668 355.012401,134.564 C351.850693,134.46 348.494797,134.408 344.944714,134.408 C342.421631,134.408 339.925901,134.46 337.457526,134.564 C334.989151,134.668 333.116881,134.754667 331.840714,134.824 L331.840714,132.64 C334.128714,132.64 335.740714,132.147625 336.676714,131.162875 C337.612714,130.178125 338.080714,128.313167 338.080714,125.568 L338.080714,73.589125 C338.080714,70.469125 337.609464,68.1637917 336.666964,66.673125 C335.724464,65.1824583 333.977047,64.437125 331.424714,64.437125 L331.424714,62.253125 C333.643381,62.461125 335.792714,62.565125 337.872714,62.565125 C340.757631,62.565125 343.472193,62.4437917 346.016401,62.201125 C348.56061,61.9584583 350.907381,61.5944583 353.056714,61.109125 L353.055687,70.7728629 C354.345571,67.8438249 356.211143,65.5342039 358.652401,63.844 C361.647276,61.7705 365.162422,60.73375 369.197839,60.73375 Z M363.082964,65.226875 C360.558797,65.226875 358.28461,66.2045833 356.260401,68.16 C354.644989,69.720513 353.576881,71.8064237 353.056077,74.417732 L353.056115,111.810947 C353.665099,112.526359 354.400611,113.118335 355.262651,113.586875 C356.538276,114.280208 358.001047,114.626875 359.650964,114.626875 C362.742797,114.626875 365.197089,113.580104 367.013839,111.486563 C368.830589,109.393021 370.130589,106.411688 370.913839,102.542563 C371.697089,98.6734375 372.088714,94.0695417 372.088714,88.730875 C372.088714,82.8104583 371.721464,78.1445417 370.986964,74.733125 C370.252464,71.3217083 369.212464,68.8844792 367.866964,67.4214375 C366.521464,65.9583958 364.926797,65.226875 363.082964,65.226875 Z M409.955035,34.589125 L409.955035,106.3345 C409.955035,109.242167 410.457702,111.216 411.463035,112.256 C412.468368,113.296 414.184368,113.816 416.611035,113.816 L416.611035,116 C415.317535,115.930667 413.358056,115.844 410.732598,115.74 C408.107139,115.636 405.435368,115.584 402.717285,115.584 C400.033868,115.584 397.310639,115.636 394.547598,115.74 C391.784556,115.844 389.709702,115.930667 388.323035,116 L388.323035,113.816 C390.749702,113.816 392.465702,113.296813 393.471035,112.258438 C394.476368,111.220063 394.979035,109.247583 394.979035,106.341 L394.979035,47.061 C394.979035,43.9464167 394.512118,41.6437917 393.578285,40.153125 C392.644452,38.6624583 390.892702,37.917125 388.323035,37.917125 L388.323035,35.733125 C390.541702,35.941125 392.691035,36.045125 394.771035,36.045125 C397.655952,36.045125 400.370514,35.9237917 402.914723,35.681125 C405.458931,35.4384583 407.805702,35.0744583 409.955035,34.589125 Z M518.469095,61.04575 L518.469095,104.70625 C518.469095,107.82625 518.957949,110.131583 519.935657,111.62225 C520.913366,113.112917 522.643178,113.85825 525.125095,113.85825 L525.125095,116.04225 C522.975761,115.83425 520.826428,115.73025 518.677095,115.73025 C515.793261,115.73025 513.089261,115.83425 510.565095,116.04225 C508.040928,116.25025 505.683595,116.631583 503.493095,117.18625 L503.493095,107.784 C501.800928,111.250667 499.481511,113.729333 496.534845,115.22 C493.588178,116.710667 490.326261,117.456 486.749095,117.456 C483.865261,117.456 481.511449,117.078188 479.687657,116.322562 C477.863866,115.566937 476.424928,114.585708 475.370845,113.378875 C474.220345,112.075625 473.402428,110.356375 472.917095,108.221125 C472.431761,106.085875 472.189095,103.3055 472.189095,99.88 L472.189095,73.52575 C472.189095,70.40575 471.717574,68.1004167 470.774532,66.60975 C469.831491,65.1190833 468.084345,64.37375 465.533095,64.37375 L465.533095,62.18975 C467.751761,62.39775 469.901095,62.50175 471.981095,62.50175 C474.864928,62.50175 477.57922,62.3804167 480.12397,62.13775 C482.66872,61.8950833 485.015761,61.5310833 487.165095,61.04575 L487.165095,104.165125 C487.165095,105.898458 487.324616,107.41675 487.643657,108.72 C487.962699,110.02325 488.572886,111.042396 489.47422,111.777437 C490.375553,112.512479 491.678803,112.88 493.38397,112.88 C495.25597,112.88 496.947866,112.36 498.459657,111.32 C499.971449,110.28 501.188303,108.848375 502.11022,107.025125 C503.032136,105.201875 503.493095,103.145708 503.493095,100.856625 L503.493095,73.52575 C503.493095,70.40575 503.021574,68.1004167 502.078532,66.60975 C501.135491,65.1190833 499.388345,64.37375 496.837095,64.37375 L496.837095,62.18975 C499.055761,62.39775 501.205095,62.50175 503.285095,62.50175 C506.168928,62.50175 508.88322,62.3804167 511.42797,62.13775 C513.97272,61.8950833 516.319761,61.5310833 518.469095,61.04575 Z M441.863104,60.73375 C445.038354,60.73375 447.901604,61.0630833 450.452854,61.72175 C453.004104,62.3804167 455.16752,63.6045833 456.943104,65.39425 C458.53777,66.9748333 459.570729,68.9299792 460.041979,71.2596875 C460.513229,73.5893958 460.748854,76.501125 460.748854,79.994875 L460.748854,108.282875 C460.748854,110.016208 460.925708,111.222771 461.279416,111.902563 C461.633124,112.582354 462.218937,112.92225 463.036854,112.92225 C463.674937,112.92225 464.288645,112.748917 464.877979,112.40225 C465.467312,112.055583 466.101604,111.6255 466.780854,111.112 L467.863104,112.88 C466.364854,114.113917 464.676479,115.063729 462.797979,115.729438 C460.919479,116.395146 458.787479,116.728 456.401979,116.728 C453.808479,116.728 451.759624,116.371042 450.255416,115.657125 C448.751208,114.943208 447.66977,113.951688 447.011104,112.682563 C446.352437,111.413438 446.001979,109.946875 445.959729,108.282875 C444.337979,110.903458 442.351958,112.966125 440.001666,114.470875 C437.651374,115.975625 434.763479,116.728 431.337979,116.728 C428.246145,116.728 425.660229,116.138667 423.580229,114.96 C421.500229,113.781333 419.964333,112.200479 418.972541,110.217438 C417.980749,108.234396 417.484854,106.064208 417.484854,103.706875 C417.484854,100.739625 418.164374,98.3164792 419.523416,96.4374375 C420.882458,94.5583958 422.640166,93.0401042 424.796541,91.8825625 C426.952916,90.7250208 429.230624,89.757875 431.629666,88.981125 C434.028708,88.204375 436.306145,87.452 438.461979,86.724 C440.617812,85.996 442.375249,85.136375 443.734291,84.145125 C445.093333,83.153875 445.772854,81.8609167 445.772854,80.26625 L445.772854,72.133125 C445.772854,70.3022917 445.485229,68.6867708 444.909979,67.2865625 C444.334729,65.8863542 443.443958,64.7908333 442.237666,64 C441.031374,63.2091667 439.443479,62.81375 437.473979,62.81375 C436.115479,62.81375 434.739374,63.0044167 433.345666,63.38575 C431.951958,63.7670833 430.790354,64.4295417 429.860854,65.373125 C431.844437,66.0242083 433.362999,67.0604167 434.416541,68.48175 C435.470083,69.9030833 435.996854,71.54325 435.996854,73.40225 C435.996854,75.7595833 435.192749,77.6175 433.584541,78.976 C431.976333,80.3345 430.034729,81.01375 427.759729,81.01375 C425.291895,81.01375 423.413124,80.2372708 422.123416,78.6843125 C420.833708,77.1313542 420.188854,75.2666667 420.188854,73.09025 C420.188854,71.0795833 420.69152,69.4050208 421.696854,68.0665625 C422.702187,66.7281042 424.127312,65.4906667 425.972229,64.35425 C427.857229,63.2026667 430.179624,62.3113542 432.939416,61.6803125 C435.699208,61.0492708 438.67377,60.73375 441.863104,60.73375 Z M445.772854,84.53025 C445.148854,85.5420833 444.278666,86.4675208 443.162291,87.3065625 C442.045916,88.1456042 440.863729,88.9949375 439.615729,89.8545625 C438.367729,90.7141875 437.185812,91.6710417 436.069979,92.725125 C434.954145,93.7792083 434.038999,95.0583542 433.324541,96.5625625 C432.610083,98.0667708 432.252854,99.9146667 432.252854,102.10625 C432.252854,104.796167 432.852749,106.796271 434.052541,108.106563 C435.252333,109.416854 436.822895,110.072 438.764229,110.072 C440.136812,110.072 441.395104,109.735625 442.539104,109.062875 C443.683104,108.390125 444.76102,107.31925 445.772854,105.85025 L445.772854,84.53025 Z M576.646266,34.589125 L576.646266,104.60225 C576.646266,107.72225 577.13512,110.027583 578.112828,111.51825 C579.090536,113.008917 580.820349,113.75425 583.302266,113.75425 L583.302266,115.93825 C581.152932,115.73025 579.003599,115.62625 576.854266,115.62625 C573.970432,115.62625 571.266703,115.73025 568.743078,115.93825 C566.219453,116.14625 563.861849,116.527583 561.670266,117.08225 L561.671318,108.196795 C560.620875,110.916224 559.150712,113.049292 557.260828,114.596 C554.93112,116.502667 551.894266,117.456 548.150266,117.456 C544.059599,117.456 540.402266,116.447146 537.178266,114.429438 C533.954266,112.411729 531.440932,109.302021 529.638266,105.100313 C527.835599,100.898604 526.934266,95.4979167 526.934266,88.89825 C526.934266,82.5889167 527.94312,77.3575 529.960828,73.204 C531.978536,69.0505 534.741578,65.93375 538.249953,63.85375 C541.758328,61.77375 545.738224,60.73375 550.189641,60.73375 C553.240307,60.73375 555.923453,61.2434583 558.239078,62.262875 C559.541079,62.83606 560.685278,63.622959 561.671674,64.623572 L561.670266,47.069125 C561.670266,43.949125 561.198745,41.6437917 560.255703,40.153125 C559.312661,38.6624583 557.565516,37.917125 555.014266,37.917125 L555.014266,35.733125 C557.232932,35.941125 559.382266,36.045125 561.462266,36.045125 C564.347182,36.045125 567.061745,35.9237917 569.605953,35.681125 C572.150161,35.4384583 574.496932,35.0744583 576.646266,34.589125 Z M554.078266,63.74975 C550.528182,63.74975 547.726953,65.8229792 545.674578,69.9694375 C543.622203,74.1158958 542.610099,80.4877917 542.638266,89.085125 C542.638266,94.9925417 543.040453,99.6969167 543.844828,103.19825 C544.649203,106.699583 545.796724,109.202354 547.287391,110.706563 C548.778057,112.210771 550.508141,112.962875 552.477641,112.962875 C554.806807,112.962875 556.900349,112.037438 558.758266,110.186563 C560.30653,108.644167 561.277392,106.622358 561.670852,104.121137 L561.67106,67.2614946 C560.878553,66.2338605 559.935517,65.4413623 558.841953,64.884 C557.358328,64.1278333 555.770432,63.74975 554.078266,63.74975 Z M630.621936,41.037125 C634.712602,41.037125 637.867269,41.4669375 640.085936,42.3265625 C642.304602,43.1861875 644.211269,44.1013333 645.805936,45.072 C646.637936,45.5573333 647.313936,45.9213333 647.833936,46.164 C648.353936,46.4066667 648.856602,46.528 649.341936,46.528 C650.035269,46.528 650.537936,46.1466667 650.849936,45.384 C651.161936,44.6213333 651.421936,43.4773333 651.629936,41.952 L654.021936,41.952 C653.952602,43.2975 653.865936,44.8783542 653.761936,46.6945625 C653.657936,48.5107708 653.588602,50.9095417 653.553936,53.890875 C653.519269,56.8722083 653.501936,60.7965833 653.501936,65.664 L651.109936,65.664 C650.860769,62.0445833 650.039331,58.54325 648.645623,55.16 C647.251915,51.77675 645.296769,48.9896042 642.780186,46.7985625 C640.263602,44.6075208 637.146852,43.512 633.429936,43.512 C630.130102,43.512 627.398477,44.4550417 625.235061,46.341125 C623.071644,48.2272083 621.989936,50.8272083 621.989936,54.141125 C621.989936,56.9285417 622.683269,59.2961667 624.069936,61.244 C625.456602,63.1918333 627.484602,65.1087917 630.153936,66.994875 C632.823269,68.8809583 636.092227,71.12725 639.960811,73.73375 C643.275811,75.91125 646.253894,78.0817083 648.895061,80.245125 C651.536227,82.4085417 653.640331,84.8281667 655.207373,87.504 C656.774415,90.1798333 657.557936,93.410875 657.557936,97.197125 C657.557936,101.759042 656.375748,105.537708 654.011373,108.533125 C651.646998,111.528542 648.509665,113.764542 644.599373,115.241125 C640.689081,116.717708 636.411269,117.456 631.765936,117.456 C627.467269,117.456 624.045831,117.04 621.501623,116.208 C618.957415,115.376 616.797519,114.509333 615.021936,113.608 C613.496602,112.637333 612.317936,112.152 611.485936,112.152 C610.792602,112.152 610.289936,112.533333 609.977936,113.296 C609.665936,114.058667 609.405936,115.202667 609.197936,116.728 L606.805936,116.728 C606.944602,115.064 607.031269,113.119146 607.065936,110.893438 C607.100602,108.667729 607.135269,105.773063 607.169936,102.209438 C607.204602,98.6458125 607.221936,94.1253333 607.221936,88.648 L609.613936,88.648 C609.891269,93.224 610.671269,97.5018125 611.953936,101.481438 C613.236602,105.461063 615.212602,108.667729 617.881936,111.101438 C620.551269,113.535146 624.104602,114.752 628.541936,114.752 C630.996769,114.752 633.184561,114.325708 635.105311,113.473125 C637.026061,112.620542 638.561686,111.327583 639.712186,109.59425 C640.862686,107.860917 641.437936,105.6975 641.437936,103.104 C641.437936,100.220167 640.772498,97.7000625 639.441623,95.5436875 C638.110748,93.3873125 636.283977,91.3696042 633.961311,89.4905625 C631.638644,87.6115208 628.930852,85.7013333 625.837936,83.76 C622.579269,81.62475 619.528602,79.4754167 616.685936,77.312 C613.843269,75.1485833 611.572602,72.68725 609.873936,69.928 C608.175269,67.16875 607.325936,63.868375 607.325936,60.026875 C607.325936,55.6447917 608.421456,52.0567917 610.612498,49.262875 C612.80354,46.4689583 615.680873,44.3995208 619.244498,43.0545625 C622.808123,41.7096042 626.600602,41.037125 630.621936,41.037125 Z M681.312325,45.176 L681.312325,62.232 L693.584325,62.232 L693.584325,64.312 L681.312325,64.312 L681.312325,106.306875 C681.312325,108.400958 681.693659,109.888375 682.456325,110.769125 C683.218992,111.649875 684.348909,112.09025 685.846075,112.09025 C687.136325,112.09025 688.398409,111.615208 689.632325,110.665125 C690.866242,109.715042 691.975575,108.103042 692.960325,105.829125 L694.728325,106.78625 C693.576742,109.892167 691.874284,112.446938 689.62095,114.450563 C687.367617,116.454188 684.3137,117.456 680.4592,117.456 C678.143034,117.456 676.128846,117.161333 674.416638,116.572 C672.704429,115.982667 671.258992,115.11275 670.080325,113.96225 C668.554992,112.40875 667.549659,110.512375 667.064325,108.273125 C666.578992,106.033875 666.336325,103.0975 666.336325,99.464 L666.336325,64.312 L657.600325,64.312 L657.600325,62.232 L666.336325,62.232 L666.336325,48.504 C669.234242,48.4758333 671.906825,48.20175 674.354075,47.68175 C676.801325,47.16175 679.120742,46.3265 681.312325,45.176 Z M747.36761,61.04575 L747.36761,104.70625 C747.36761,107.82625 747.856465,110.131583 748.834173,111.62225 C749.811881,113.112917 751.541694,113.85825 754.02361,113.85825 L754.02361,116.04225 C751.874277,115.83425 749.724944,115.73025 747.57561,115.73025 C744.691777,115.73025 741.987777,115.83425 739.46361,116.04225 C736.939444,116.25025 734.58211,116.631583 732.39161,117.18625 L732.39161,107.784 C730.699444,111.250667 728.380027,113.729333 725.43336,115.22 C722.486694,116.710667 719.224777,117.456 715.64761,117.456 C712.763777,117.456 710.409965,117.078188 708.586173,116.322562 C706.762381,115.566937 705.323444,114.585708 704.26936,113.378875 C703.11886,112.075625 702.300944,110.356375 701.81561,108.221125 C701.330277,106.085875 701.08761,103.3055 701.08761,99.88 L701.08761,73.52575 C701.08761,70.40575 700.61609,68.1004167 699.673048,66.60975 C698.730006,65.1190833 696.98286,64.37375 694.43161,64.37375 L694.43161,62.18975 C696.650277,62.39775 698.79961,62.50175 700.87961,62.50175 C703.763444,62.50175 706.477735,62.3804167 709.022485,62.13775 C711.567235,61.8950833 713.914277,61.5310833 716.06361,61.04575 L716.06361,104.165125 C716.06361,105.898458 716.223131,107.41675 716.542173,108.72 C716.861215,110.02325 717.471402,111.042396 718.372735,111.777437 C719.274069,112.512479 720.577319,112.88 722.282485,112.88 C724.154485,112.88 725.846381,112.36 727.358173,111.32 C728.869965,110.28 730.086819,108.848375 731.008735,107.025125 C731.930652,105.201875 732.39161,103.145708 732.39161,100.856625 L732.39161,73.52575 C732.39161,70.40575 731.92009,68.1004167 730.977048,66.60975 C730.034006,65.1190833 728.28686,64.37375 725.73561,64.37375 L725.73561,62.18975 C727.954277,62.39775 730.10361,62.50175 732.18361,62.50175 C735.067444,62.50175 737.781735,62.3804167 740.326485,62.13775 C742.871235,61.8950833 745.218277,61.5310833 747.36761,61.04575 Z M803.984781,34.589125 L803.984781,104.60225 C803.984781,107.72225 804.473635,110.027583 805.451344,111.51825 C806.429052,113.008917 808.158865,113.75425 810.640781,113.75425 L810.640781,115.93825 C808.491448,115.73025 806.342115,115.62625 804.192781,115.62625 C801.308948,115.62625 798.605219,115.73025 796.081594,115.93825 C793.557969,116.14625 791.200365,116.527583 789.008781,117.08225 L789.008677,108.199787 C787.958312,110.917789 786.488534,113.04986 784.599344,114.596 C782.269635,116.502667 779.232781,117.456 775.488781,117.456 C771.398115,117.456 767.740781,116.447146 764.516781,114.429438 C761.292781,112.411729 758.779448,109.302021 756.976781,105.100313 C755.174115,100.898604 754.272781,95.4979167 754.272781,88.89825 C754.272781,82.5889167 755.281635,77.3575 757.299344,73.204 C759.317052,69.0505 762.080094,65.93375 765.588469,63.85375 C769.096844,61.77375 773.07674,60.73375 777.528156,60.73375 C780.578823,60.73375 783.261969,61.2434583 785.577594,62.262875 C786.879164,62.8358705 788.023037,63.6224388 789.009211,64.6225797 L789.008781,47.069125 C789.008781,43.949125 788.53726,41.6437917 787.594219,40.153125 C786.651177,38.6624583 784.904031,37.917125 782.352781,37.917125 L782.352781,35.733125 C784.571448,35.941125 786.720781,36.045125 788.800781,36.045125 C791.685698,36.045125 794.40026,35.9237917 796.944469,35.681125 C799.488677,35.4384583 801.835448,35.0744583 803.984781,34.589125 Z M781.416781,63.74975 C777.866698,63.74975 775.065469,65.8229792 773.013094,69.9694375 C770.960719,74.1158958 769.948615,80.4877917 769.976781,89.085125 C769.976781,94.9925417 770.378969,99.6969167 771.183344,103.19825 C771.987719,106.699583 773.13524,109.202354 774.625906,110.706563 C776.116573,112.210771 777.846656,112.962875 779.816156,112.962875 C782.145323,112.962875 784.238865,112.037438 786.096781,110.186563 C787.643793,108.645414 788.614337,106.625628 789.008412,104.127204 L789.008819,67.2605129 C788.216468,66.2333557 787.273684,65.4411848 786.180469,64.884 C784.696844,64.1278333 783.108948,63.74975 781.416781,63.74975 Z M825.149035,35.4 C828.061035,35.4 830.366368,36.1106667 832.065035,37.532 C833.763702,38.9533333 834.613035,40.912 834.613035,43.408 C834.613035,45.904 833.763702,47.8626667 832.065035,49.284 C830.366368,50.7053333 828.061035,51.416 825.149035,51.416 C822.237035,51.416 819.931702,50.7053333 818.233035,49.284 C816.534368,47.8626667 815.685035,45.904 815.685035,43.408 C815.685035,40.912 816.534368,38.9533333 818.233035,37.532 C819.931702,36.1106667 822.237035,35.4 825.149035,35.4 Z M833.261035,61.088 L833.261035,106.328 C833.261035,109.24 833.763702,111.216 834.769035,112.256 C835.774368,113.296 837.490368,113.816 839.917035,113.816 L839.917035,116 C838.669035,115.930667 836.727702,115.844 834.093035,115.74 C831.458368,115.636 828.789035,115.584 826.085035,115.584 C823.381035,115.584 820.642368,115.636 817.869035,115.74 C815.095702,115.844 813.015702,115.930667 811.629035,116 L811.629035,113.816 C814.055702,113.816 815.771702,113.296 816.777035,112.256 C817.782368,111.216 818.285035,109.24 818.285035,106.328 L818.285035,73.568 C818.285035,70.448 817.817035,68.1426667 816.881035,66.652 C815.945035,65.1613333 814.194368,64.416 811.629035,64.416 L811.629035,62.232 C813.847702,62.44 815.997035,62.544 818.077035,62.544 C820.989035,62.544 823.710368,62.4226667 826.241035,62.18 C828.771702,61.9373333 831.111702,61.5733333 833.261035,61.088 Z M866.083991,60.73375 C871.103075,60.73375 875.515762,61.6732708 879.322054,63.5523125 C883.128345,65.4313542 886.120241,68.450875 888.297741,72.610875 C890.475241,76.770875 891.563991,82.282875 891.563991,89.146875 C891.563991,96.010875 890.475241,101.516104 888.297741,105.662563 C886.120241,109.809021 883.128345,112.811208 879.322054,114.669125 C875.515762,116.527042 871.103075,117.456 866.083991,117.456 C861.133158,117.456 856.737262,116.527042 852.896304,114.669125 C849.055345,112.811208 846.046387,109.809021 843.869429,105.662563 C841.69247,101.516104 840.603991,96.010875 840.603991,89.146875 C840.603991,82.282875 841.69247,76.770875 843.869429,72.610875 C846.046387,68.450875 849.055345,65.4313542 852.896304,63.5523125 C856.737262,61.6732708 861.133158,60.73375 866.083991,60.73375 Z M866.083991,62.81375 C863.254325,62.81375 860.917304,64.8799375 859.072929,69.0123125 C857.228554,73.1446875 856.306366,79.8562083 856.306366,89.146875 C856.306366,98.4375417 857.228554,105.131729 859.072929,109.229438 C860.917304,113.327146 863.254325,115.376 866.083991,115.376 C868.912575,115.376 871.249054,113.327146 873.093429,109.229438 C874.937804,105.131729 875.859991,98.4375417 875.859991,89.146875 C875.859991,79.8562083 874.937804,73.1446875 873.093429,69.0123125 C871.249054,64.8799375 868.912575,62.81375 866.083991,62.81375 Z" id="Combined-Shape"></path>
            </g>
        </g>
    </g>
</svg>